{"asset":{"generator":"glTF-Transform v4.5.1","version":"2.0"},"accessors":[{"type":"SCALAR","componentType":5123,"count":1056,"normalized":false,"byteOffset":0,"bufferView":0},{"type":"VEC3","componentType":5120,"count":219,"normalized":true,"byteOffset":0,"bufferView":1},{"type":"SCALAR","componentType":5123,"count":120,"normalized":false,"byteOffset":2112,"bufferView":0},{"type":"VEC3","componentType":5120,"count":46,"normalized":true,"byteOffset":0,"bufferView":2},{"type":"SCALAR","componentType":5123,"count":504,"normalized":false,"byteOffset":2352,"bufferView":0},{"type":"VEC3","componentType":5120,"count":99,"normalized":true,"byteOffset":0,"bufferView":3},{"type":"VEC3","componentType":5122,"count":219,"max":[32767,32767,32767],"min":[-32767,-32767,-32767],"normalized":true,"byteOffset":0,"bufferView":4},{"type":"VEC2","componentType":5123,"count":219,"normalized":true,"byteOffset":0,"bufferView":5},{"type":"VEC3","componentType":5122,"count":46,"max":[3562,32767,3745],"min":[-3562,-32767,-3745],"normalized":true,"byteOffset":0,"bufferView":6},{"type":"VEC2","componentType":5123,"count":46,"normalized":true,"byteOffset":0,"bufferView":7},{"type":"VEC3","componentType":5122,"count":99,"max":[32767,32767,32767],"min":[-32767,-32767,-32767],"normalized":true,"byteOffset":0,"bufferView":8}],"bufferViews":[{"buffer":1,"byteOffset":0,"byteLength":3360,"target":34963,"extensions":{"EXT_meshopt_compression":{"buffer":0,"byteOffset":0,"byteLength":669,"mode":"TRIANGLES","byteStride":2,"count":1680}}},{"buffer":1,"byteOffset":3360,"byteLength":876,"target":34962,"byteStride":4,"extensions":{"EXT_meshopt_compression":{"buffer":0,"byteOffset":672,"byteLength":488,"mode":"ATTRIBUTES","filter":"OCTAHEDRAL","byteStride":4,"count":219}}},{"buffer":1,"byteOffset":4236,"byteLength":184,"target":34962,"byteStride":4,"extensions":{"EXT_meshopt_compression":{"buffer":0,"byteOffset":1160,"byteLength":72,"mode":"ATTRIBUTES","filter":"OCTAHEDRAL","byteStride":4,"count":46}}},{"buffer":1,"byteOffset":4420,"byteLength":396,"target":34962,"byteStride":4,"extensions":{"EXT_meshopt_compression":{"buffer":0,"byteOffset":1232,"byteLength":247,"mode":"ATTRIBUTES","filter":"OCTAHEDRAL","byteStride":4,"count":99}}},{"buffer":1,"byteOffset":4816,"byteLength":1752,"target":34962,"byteStride":8,"extensions":{"EXT_meshopt_compression":{"buffer":0,"byteOffset":1480,"byteLength":1303,"mode":"ATTRIBUTES","byteStride":8,"count":219}}},{"buffer":1,"byteOffset":6568,"byteLength":876,"target":34962,"byteStride":4,"extensions":{"EXT_meshopt_compression":{"buffer":0,"byteOffset":2784,"byteLength":669,"mode":"ATTRIBUTES","byteStride":4,"count":219}}},{"buffer":1,"byteOffset":7444,"byteLength":368,"target":34962,"byteStride":8,"extensions":{"EXT_meshopt_compression":{"buffer":0,"byteOffset":3456,"byteLength":234,"mode":"ATTRIBUTES","byteStride":8,"count":46}}},{"buffer":1,"byteOffset":7812,"byteLength":184,"target":34962,"byteStride":4,"extensions":{"EXT_meshopt_compression":{"buffer":0,"byteOffset":3692,"byteLength":181,"mode":"ATTRIBUTES","byteStride":4,"count":46}}},{"buffer":1,"byteOffset":7996,"byteLength":792,"target":34962,"byteStride":8,"extensions":{"EXT_meshopt_compression":{"buffer":0,"byteOffset":3876,"byteLength":634,"mode":"ATTRIBUTES","byteStride":8,"count":99}}}],"samplers":[{"wrapS":10497,"wrapT":10497}],"textures":[{"source":0,"sampler":0},{"source":1,"sampler":0},{"source":2,"sampler":0}],"images":[{"name":"wood_albedo","mimeType":"image/png","uri":"../textures/cc1076af92e734b02c5d.png"},{"name":"wood_normal","mimeType":"image/png","uri":"../textures/95a7d373f8dd63af7d15.png"},{"name":"wood_roughness","mimeType":"image/png","uri":"../textures/24356be8f8e9686740a4.png"}],"buffers":[{"uri":"prop-seedling.bin","byteLength":4512},{"byteLength":8788,"extensions":{"EXT_meshopt_compression":{"fallback":true}}}],"materials":[{"name":"tool_wood","pbrMetallicRoughness":{"baseColorFactor":[0.24620132669705552,0.10702310296918527,0.035601314869097636,1],"roughnessFactor":0.85,"metallicFactor":0,"baseColorTexture":{"index":0},"metallicRoughnessTexture":{"index":2}},"normalTexture":{"index":1,"scale":0.35}},{"pbrMetallicRoughness":{"baseColorFactor":[0.06662593863608139,0.22696587349938613,0.06847816983662762,1],"roughnessFactor":0.9,"metallicFactor":0}}],"meshes":[{"primitives":[{"attributes":{"NORMAL":1,"POSITION":6,"TEXCOORD_0":7},"mode":4,"material":0,"indices":0}]},{"primitives":[{"attributes":{"NORMAL":3,"POSITION":8,"TEXCOORD_0":9},"mode":4,"material":0,"indices":2}]},{"primitives":[{"attributes":{"NORMAL":5,"POSITION":10},"mode":4,"material":1,"indices":4}]},{"primitives":[{"attributes":{"NORMAL":5,"POSITION":10},"mode":4,"material":1,"indices":4}]}],"nodes":[{"name":"seedling","children":[1,2,3,4]},{"translation":[0,-0.035,0],"scale":[0.04800000041723251,0.038400000333786016,0.04800000041723251],"mesh":0},{"translation":[0,0.075,0],"scale":[0.07000000029802322,0.07000000029802322,0.07000000029802322],"mesh":1},{"translation":[-0.034,0.13,0],"scale":[0.055,0.022,0.025],"mesh":2},{"translation":[0.034,0.13,0],"scale":[0.055,0.022,0.025],"mesh":3}],"scenes":[{"name":"AuxScene","nodes":[0]}],"scene":0,"extensionsUsed":["EXT_meshopt_compression","KHR_mesh_quantization"],"extensionsRequired":["EXT_meshopt_compression","KHR_mesh_quantization"]}