{"asset":{"generator":"glTF-Transform v4.5.1","version":"2.0"},"accessors":[{"type":"SCALAR","componentType":5123,"count":192,"normalized":false,"byteOffset":0,"bufferView":0},{"type":"VEC3","componentType":5120,"count":70,"normalized":true,"byteOffset":0,"bufferView":1},{"type":"SCALAR","componentType":5123,"count":36,"normalized":false,"byteOffset":384,"bufferView":0},{"type":"VEC3","componentType":5120,"count":8,"normalized":true,"byteOffset":0,"bufferView":2},{"type":"VEC3","componentType":5122,"count":70,"max":[2286,32767,2286],"min":[-2286,-32767,-2286],"normalized":true,"byteOffset":0,"bufferView":3},{"type":"VEC2","componentType":5123,"count":70,"normalized":true,"byteOffset":0,"bufferView":4},{"type":"VEC3","componentType":5122,"count":8,"max":[32767,23976,7459],"min":[-32767,-23976,-7459],"normalized":true,"byteOffset":0,"bufferView":5}],"bufferViews":[{"buffer":1,"byteOffset":0,"byteLength":456,"target":34963,"extensions":{"EXT_meshopt_compression":{"buffer":0,"byteOffset":0,"byteLength":94,"mode":"TRIANGLES","byteStride":2,"count":228}}},{"buffer":1,"byteOffset":456,"byteLength":280,"target":34962,"byteStride":4,"extensions":{"EXT_meshopt_compression":{"buffer":0,"byteOffset":96,"byteLength":88,"mode":"ATTRIBUTES","filter":"OCTAHEDRAL","byteStride":4,"count":70}}},{"buffer":1,"byteOffset":736,"byteLength":32,"target":34962,"byteStride":4,"extensions":{"EXT_meshopt_compression":{"buffer":0,"byteOffset":184,"byteLength":58,"mode":"ATTRIBUTES","filter":"OCTAHEDRAL","byteStride":4,"count":8}}},{"buffer":1,"byteOffset":768,"byteLength":560,"target":34962,"byteStride":8,"extensions":{"EXT_meshopt_compression":{"buffer":0,"byteOffset":244,"byteLength":322,"mode":"ATTRIBUTES","byteStride":8,"count":70}}},{"buffer":1,"byteOffset":1328,"byteLength":280,"target":34962,"byteStride":4,"extensions":{"EXT_meshopt_compression":{"buffer":0,"byteOffset":568,"byteLength":257,"mode":"ATTRIBUTES","byteStride":4,"count":70}}},{"buffer":1,"byteOffset":1608,"byteLength":64,"target":34962,"byteStride":8,"extensions":{"EXT_meshopt_compression":{"buffer":0,"byteOffset":828,"byteLength":93,"mode":"ATTRIBUTES","byteStride":8,"count":8}}}],"samplers":[{"wrapS":10497,"wrapT":10497}],"textures":[{"source":0,"sampler":0},{"source":1,"sampler":0},{"source":2,"sampler":0}],"images":[{"name":"wood_albedo","mimeType":"image/png","uri":"../textures/cc1076af92e734b02c5d.png"},{"name":"wood_normal","mimeType":"image/png","uri":"../textures/95a7d373f8dd63af7d15.png"},{"name":"wood_roughness","mimeType":"image/png","uri":"../textures/24356be8f8e9686740a4.png"}],"buffers":[{"uri":"prop-axe.bin","byteLength":924},{"byteLength":1672,"extensions":{"EXT_meshopt_compression":{"fallback":true}}}],"materials":[{"name":"tool_wood","pbrMetallicRoughness":{"baseColorFactor":[0.24620132669705552,0.10702310296918527,0.035601314869097636,1],"roughnessFactor":0.85,"metallicFactor":0,"baseColorTexture":{"index":0},"metallicRoughnessTexture":{"index":2}},"normalTexture":{"index":1,"scale":0.35}},{"pbrMetallicRoughness":{"baseColorFactor":[0.33245153633549385,0.3915724777393922,0.407240211891531,1],"roughnessFactor":0.42,"metallicFactor":0.65}}],"meshes":[{"primitives":[{"attributes":{"NORMAL":1,"POSITION":4,"TEXCOORD_0":5},"mode":4,"material":0,"indices":0}]},{"primitives":[{"attributes":{"NORMAL":3,"POSITION":6},"mode":4,"material":1,"indices":2}]}],"nodes":[{"name":"axe","children":[1,2]},{"translation":[0,0.12,0],"scale":[0.2150000035762787,0.2150000035762787,0.2150000035762787],"mesh":0},{"translation":[0.04349999874830246,0.32,0],"scale":[0.06149999797344208,0.06149999797344208,0.06149999797344208],"mesh":1}],"scenes":[{"name":"AuxScene","nodes":[0]}],"scene":0,"extensionsUsed":["EXT_meshopt_compression","KHR_mesh_quantization"],"extensionsRequired":["EXT_meshopt_compression","KHR_mesh_quantization"]}