{"asset":{"generator":"glTF-Transform v4.5.1","version":"2.0"},"accessors":[{"type":"SCALAR","componentType":5123,"count":4416,"normalized":false,"byteOffset":0,"bufferView":0},{"type":"VEC3","componentType":5120,"count":823,"normalized":true,"byteOffset":0,"bufferView":1},{"type":"VEC3","componentType":5122,"count":823,"max":[32767,14628,15189],"min":[-32767,-14628,-15189],"normalized":true,"byteOffset":0,"bufferView":2},{"type":"VEC2","componentType":5123,"count":823,"normalized":true,"byteOffset":0,"bufferView":3}],"bufferViews":[{"buffer":1,"byteOffset":0,"byteLength":8832,"target":34963,"extensions":{"EXT_meshopt_compression":{"buffer":0,"byteOffset":0,"byteLength":1680,"mode":"TRIANGLES","byteStride":2,"count":4416}}},{"buffer":1,"byteOffset":8832,"byteLength":3292,"target":34962,"byteStride":4,"extensions":{"EXT_meshopt_compression":{"buffer":0,"byteOffset":1680,"byteLength":1361,"mode":"ATTRIBUTES","filter":"OCTAHEDRAL","byteStride":4,"count":823}}},{"buffer":1,"byteOffset":12124,"byteLength":6584,"target":34962,"byteStride":8,"extensions":{"EXT_meshopt_compression":{"buffer":0,"byteOffset":3044,"byteLength":4041,"mode":"ATTRIBUTES","byteStride":8,"count":823}}},{"buffer":1,"byteOffset":18708,"byteLength":3292,"target":34962,"byteStride":4,"extensions":{"EXT_meshopt_compression":{"buffer":0,"byteOffset":7088,"byteLength":1997,"mode":"ATTRIBUTES","byteStride":4,"count":823}}}],"samplers":[{"wrapS":10497,"wrapT":10497}],"textures":[{"source":0,"sampler":0},{"source":1,"sampler":0},{"source":2,"sampler":0}],"images":[{"name":"linen_albedo","mimeType":"image/png","uri":"../textures/2c0196608b2a7cf39b39.png"},{"name":"linen_normal","mimeType":"image/png","uri":"../textures/25f78bf7931cfd222474.png"},{"name":"linen_roughness","mimeType":"image/png","uri":"../textures/4e47977bbf8f1a726ed3.png"}],"buffers":[{"uri":"prop-coal_sack.bin","byteLength":9088},{"byteLength":22000,"extensions":{"EXT_meshopt_compression":{"fallback":true}}}],"materials":[{"name":"woven_linen","pbrMetallicRoughness":{"baseColorFactor":[0.23455058215026167,0.1912016827303171,0.13563332964548108,1],"roughnessFactor":0.94,"metallicFactor":0,"baseColorTexture":{"index":0},"metallicRoughnessTexture":{"index":2}},"normalTexture":{"index":1,"scale":0.35}}],"meshes":[{"primitives":[{"attributes":{"NORMAL":1,"POSITION":2,"TEXCOORD_0":3},"mode":4,"material":0,"indices":0}]}],"nodes":[{"name":"coal_sack","children":[1]},{"translation":[0,0,-0.015207629650831223],"scale":[0.2800000011920929,0.2800000011920929,0.2800000011920929],"mesh":0}],"scenes":[{"name":"AuxScene","nodes":[0]}],"scene":0,"extensionsUsed":["EXT_meshopt_compression","KHR_mesh_quantization"],"extensionsRequired":["EXT_meshopt_compression","KHR_mesh_quantization"]}