{"asset":{"generator":"glTF-Transform v4.5.1","version":"2.0"},"accessors":[{"type":"SCALAR","componentType":5123,"count":4608,"normalized":false,"byteOffset":0,"bufferView":0},{"type":"VEC3","componentType":5120,"count":833,"normalized":true,"byteOffset":0,"bufferView":1},{"type":"SCALAR","componentType":5123,"count":588,"normalized":false,"byteOffset":9216,"bufferView":0},{"type":"VEC3","componentType":5120,"count":100,"normalized":true,"byteOffset":0,"bufferView":2},{"type":"SCALAR","componentType":5123,"count":144,"normalized":false,"byteOffset":10392,"bufferView":0},{"type":"VEC3","componentType":5120,"count":54,"normalized":true,"byteOffset":0,"bufferView":3},{"type":"VEC3","componentType":5120,"count":54,"normalized":true,"byteOffset":0,"bufferView":4},{"type":"VEC3","componentType":5122,"count":833,"max":[1589,32767,19709],"min":[-1589,-32767,-19709],"normalized":true,"byteOffset":0,"bufferView":5},{"type":"VEC2","componentType":5123,"count":833,"normalized":true,"byteOffset":0,"bufferView":6},{"type":"VEC3","componentType":5122,"count":100,"max":[32767,949,12775],"min":[-32767,-949,-12775],"normalized":true,"byteOffset":0,"bufferView":7},{"type":"VEC3","componentType":5122,"count":54,"max":[5545,32767,5545],"min":[-5545,-32767,-5545],"normalized":true,"byteOffset":0,"bufferView":8},{"type":"VEC2","componentType":5123,"count":54,"normalized":true,"byteOffset":0,"bufferView":9},{"type":"VEC3","componentType":5122,"count":54,"max":[9658,32767,9658],"min":[-9658,-32767,-9658],"normalized":true,"byteOffset":0,"bufferView":10}],"bufferViews":[{"buffer":1,"byteOffset":0,"byteLength":10680,"target":34963,"extensions":{"EXT_meshopt_compression":{"buffer":0,"byteOffset":0,"byteLength":1900,"mode":"TRIANGLES","byteStride":2,"count":5340}}},{"buffer":1,"byteOffset":10680,"byteLength":3332,"target":34962,"byteStride":4,"extensions":{"EXT_meshopt_compression":{"buffer":0,"byteOffset":1900,"byteLength":974,"mode":"ATTRIBUTES","filter":"OCTAHEDRAL","byteStride":4,"count":833}}},{"buffer":1,"byteOffset":14012,"byteLength":400,"target":34962,"byteStride":4,"extensions":{"EXT_meshopt_compression":{"buffer":0,"byteOffset":2876,"byteLength":249,"mode":"ATTRIBUTES","filter":"OCTAHEDRAL","byteStride":4,"count":100}}},{"buffer":1,"byteOffset":14412,"byteLength":216,"target":34962,"byteStride":4,"extensions":{"EXT_meshopt_compression":{"buffer":0,"byteOffset":3128,"byteLength":72,"mode":"ATTRIBUTES","filter":"OCTAHEDRAL","byteStride":4,"count":54}}},{"buffer":1,"byteOffset":14628,"byteLength":216,"target":34962,"byteStride":4,"extensions":{"EXT_meshopt_compression":{"buffer":0,"byteOffset":3200,"byteLength":72,"mode":"ATTRIBUTES","filter":"OCTAHEDRAL","byteStride":4,"count":54}}},{"buffer":1,"byteOffset":14844,"byteLength":6664,"target":34962,"byteStride":8,"extensions":{"EXT_meshopt_compression":{"buffer":0,"byteOffset":3272,"byteLength":3750,"mode":"ATTRIBUTES","byteStride":8,"count":833}}},{"buffer":1,"byteOffset":21508,"byteLength":3332,"target":34962,"byteStride":4,"extensions":{"EXT_meshopt_compression":{"buffer":0,"byteOffset":7024,"byteLength":1715,"mode":"ATTRIBUTES","byteStride":4,"count":833}}},{"buffer":1,"byteOffset":24840,"byteLength":800,"target":34962,"byteStride":8,"extensions":{"EXT_meshopt_compression":{"buffer":0,"byteOffset":8740,"byteLength":521,"mode":"ATTRIBUTES","byteStride":8,"count":100}}},{"buffer":1,"byteOffset":25640,"byteLength":432,"target":34962,"byteStride":8,"extensions":{"EXT_meshopt_compression":{"buffer":0,"byteOffset":9264,"byteLength":292,"mode":"ATTRIBUTES","byteStride":8,"count":54}}},{"buffer":1,"byteOffset":26072,"byteLength":216,"target":34962,"byteStride":4,"extensions":{"EXT_meshopt_compression":{"buffer":0,"byteOffset":9556,"byteLength":215,"mode":"ATTRIBUTES","byteStride":4,"count":54}}},{"buffer":1,"byteOffset":26288,"byteLength":432,"target":34962,"byteStride":8,"extensions":{"EXT_meshopt_compression":{"buffer":0,"byteOffset":9772,"byteLength":278,"mode":"ATTRIBUTES","byteStride":8,"count":54}}}],"samplers":[{"wrapS":10497,"wrapT":10497}],"textures":[{"source":0,"sampler":0},{"source":1,"sampler":0},{"source":2,"sampler":0}],"images":[{"name":"wood_albedo","mimeType":"image/png","uri":"../textures/cc1076af92e734b02c5d.png"},{"name":"wood_normal","mimeType":"image/png","uri":"../textures/95a7d373f8dd63af7d15.png"},{"name":"wood_roughness","mimeType":"image/png","uri":"../textures/24356be8f8e9686740a4.png"}],"buffers":[{"uri":"prop-scythe.bin","byteLength":10052},{"byteLength":26720,"extensions":{"EXT_meshopt_compression":{"fallback":true}}}],"materials":[{"name":"tool_wood","pbrMetallicRoughness":{"baseColorFactor":[0.24620132669705552,0.10702310296918527,0.035601314869097636,1],"roughnessFactor":0.85,"metallicFactor":0,"baseColorTexture":{"index":0},"metallicRoughnessTexture":{"index":2}},"normalTexture":{"index":1,"scale":0.35}},{"pbrMetallicRoughness":{"baseColorFactor":[0.33245153633549385,0.3915724777393922,0.407240211891531,1],"roughnessFactor":0.42,"metallicFactor":0.65}}],"meshes":[{"primitives":[{"attributes":{"NORMAL":1,"POSITION":7,"TEXCOORD_0":8},"mode":4,"material":0,"indices":0}]},{"primitives":[{"attributes":{"NORMAL":3,"POSITION":9},"mode":4,"material":1,"indices":2}]},{"primitives":[{"attributes":{"NORMAL":5,"POSITION":10,"TEXCOORD_0":11},"mode":4,"material":0,"indices":4}]},{"primitives":[{"attributes":{"NORMAL":6,"POSITION":12,"TEXCOORD_0":11},"mode":4,"material":0,"indices":4}]}],"nodes":[{"name":"scythe","children":[1,2,3,4,5,6]},{"translation":[0.005766186397522688,-0.19521956890821457,0.12988176569342613],"scale":[0.40129364281892776,0.40129364281892776,0.40129364281892776],"mesh":0},{"translation":[-0.1899999976158142,-0.590499997138977,0.4340733289718628],"scale":[0.1899999976158142,0.1899999976158142,0.1899999976158142],"mesh":1},{"translation":[0.065,0.04,-0.025],"rotation":[0,0,0.7071067811865475,0.7071067811865476],"scale":[0.06499999761581421,0.06499999761581421,0.06499999761581421],"mesh":2},{"translation":[0.13,0.04,-0.025],"rotation":[0.7071067811865475,0,0,0.7071067811865476],"scale":[0.04749999940395355,0.04749999940395355,0.04749999940395355],"mesh":3},{"translation":[-0.065,-0.035,0.025],"rotation":[0,0,0.7071067811865475,0.7071067811865476],"scale":[0.06499999761581421,0.06499999761581421,0.06499999761581421],"mesh":2},{"translation":[-0.13,-0.035,0.025],"rotation":[0.7071067811865475,0,0,0.7071067811865476],"scale":[0.04749999940395355,0.04749999940395355,0.04749999940395355],"mesh":3}],"scenes":[{"name":"AuxScene","nodes":[0]}],"scene":0,"extensionsUsed":["EXT_meshopt_compression","KHR_mesh_quantization"],"extensionsRequired":["EXT_meshopt_compression","KHR_mesh_quantization"]}