{"asset":{"generator":"glTF-Transform v4.5.1","version":"2.0"},"accessors":[{"type":"SCALAR","componentType":5123,"count":2304,"normalized":false,"byteOffset":0,"bufferView":0},{"type":"VEC3","componentType":5120,"count":425,"normalized":true,"byteOffset":0,"bufferView":1},{"type":"SCALAR","componentType":5123,"count":2304,"normalized":false,"byteOffset":4608,"bufferView":0},{"type":"VEC3","componentType":5120,"count":425,"normalized":true,"byteOffset":0,"bufferView":2},{"type":"SCALAR","componentType":5123,"count":384,"normalized":false,"byteOffset":9216,"bufferView":0},{"type":"VEC3","componentType":5120,"count":134,"normalized":true,"byteOffset":0,"bufferView":3},{"type":"SCALAR","componentType":5123,"count":192,"normalized":false,"byteOffset":9984,"bufferView":0},{"type":"VEC3","componentType":5120,"count":70,"normalized":true,"byteOffset":0,"bufferView":4},{"type":"VEC3","componentType":5122,"count":425,"max":[32767,20024,592],"min":[-32767,-20024,-592],"normalized":true,"byteOffset":0,"bufferView":5},{"type":"VEC2","componentType":5123,"count":425,"normalized":true,"byteOffset":0,"bufferView":6},{"type":"VEC3","componentType":5122,"count":425,"max":[32767,20024,592],"min":[-32767,-20024,-592],"normalized":true,"byteOffset":0,"bufferView":7},{"type":"VEC3","componentType":5122,"count":134,"max":[3029,32767,3029],"min":[-3029,-32767,-3029],"normalized":true,"byteOffset":0,"bufferView":8},{"type":"VEC3","componentType":5122,"count":70,"max":[932,32767,932],"min":[-932,-32767,-932],"normalized":true,"byteOffset":0,"bufferView":9}],"bufferViews":[{"buffer":1,"byteOffset":0,"byteLength":10368,"target":34963,"extensions":{"EXT_meshopt_compression":{"buffer":0,"byteOffset":0,"byteLength":1868,"mode":"TRIANGLES","byteStride":2,"count":5184}}},{"buffer":1,"byteOffset":10368,"byteLength":1700,"target":34962,"byteStride":4,"extensions":{"EXT_meshopt_compression":{"buffer":0,"byteOffset":1868,"byteLength":298,"mode":"ATTRIBUTES","filter":"OCTAHEDRAL","byteStride":4,"count":425}}},{"buffer":1,"byteOffset":12068,"byteLength":1700,"target":34962,"byteStride":4,"extensions":{"EXT_meshopt_compression":{"buffer":0,"byteOffset":2168,"byteLength":185,"mode":"ATTRIBUTES","filter":"OCTAHEDRAL","byteStride":4,"count":425}}},{"buffer":1,"byteOffset":13768,"byteLength":536,"target":34962,"byteStride":4,"extensions":{"EXT_meshopt_compression":{"buffer":0,"byteOffset":2356,"byteLength":120,"mode":"ATTRIBUTES","filter":"OCTAHEDRAL","byteStride":4,"count":134}}},{"buffer":1,"byteOffset":14304,"byteLength":280,"target":34962,"byteStride":4,"extensions":{"EXT_meshopt_compression":{"buffer":0,"byteOffset":2476,"byteLength":88,"mode":"ATTRIBUTES","filter":"OCTAHEDRAL","byteStride":4,"count":70}}},{"buffer":1,"byteOffset":14584,"byteLength":3400,"target":34962,"byteStride":8,"extensions":{"EXT_meshopt_compression":{"buffer":0,"byteOffset":2564,"byteLength":1800,"mode":"ATTRIBUTES","byteStride":8,"count":425}}},{"buffer":1,"byteOffset":17984,"byteLength":1700,"target":34962,"byteStride":4,"extensions":{"EXT_meshopt_compression":{"buffer":0,"byteOffset":4364,"byteLength":968,"mode":"ATTRIBUTES","byteStride":4,"count":425}}},{"buffer":1,"byteOffset":19684,"byteLength":3400,"target":34962,"byteStride":8,"extensions":{"EXT_meshopt_compression":{"buffer":0,"byteOffset":5332,"byteLength":1950,"mode":"ATTRIBUTES","byteStride":8,"count":425}}},{"buffer":1,"byteOffset":23084,"byteLength":1072,"target":34962,"byteStride":8,"extensions":{"EXT_meshopt_compression":{"buffer":0,"byteOffset":7284,"byteLength":509,"mode":"ATTRIBUTES","byteStride":8,"count":134}}},{"buffer":1,"byteOffset":24156,"byteLength":560,"target":34962,"byteStride":8,"extensions":{"EXT_meshopt_compression":{"buffer":0,"byteOffset":7796,"byteLength":281,"mode":"ATTRIBUTES","byteStride":8,"count":70}}}],"samplers":[{"wrapS":10497,"wrapT":10497}],"textures":[{"source":0,"sampler":0}],"images":[{"name":"roman_notice_paper","mimeType":"image/png","uri":"../textures/3cf84f632df4420b7505.png"}],"buffers":[{"uri":"prop-papyrus_scroll.bin","byteLength":8080},{"byteLength":24716,"extensions":{"EXT_meshopt_compression":{"fallback":true}}}],"materials":[{"name":"roman_notice_paper","pbrMetallicRoughness":{"roughnessFactor":0.98,"metallicFactor":0,"baseColorTexture":{"index":0}}},{"pbrMetallicRoughness":{"baseColorFactor":[0.6724431569510133,0.5271151256969157,0.3005437944049895,1],"roughnessFactor":0.98,"metallicFactor":0}},{"pbrMetallicRoughness":{"baseColorFactor":[0.6444796819634361,0.48514994004665124,0.23839757380151394,1],"roughnessFactor":0.94,"metallicFactor":0}},{"pbrMetallicRoughness":{"baseColorFactor":[0.14702726648767014,0.0722718506743852,0.025186859622305935,1],"roughnessFactor":0.85,"metallicFactor":0}}],"meshes":[{"primitives":[{"attributes":{"NORMAL":1,"POSITION":8,"TEXCOORD_0":9},"mode":4,"material":0,"indices":0}]},{"primitives":[{"attributes":{"NORMAL":3,"POSITION":10},"mode":4,"material":1,"indices":2}]},{"primitives":[{"attributes":{"NORMAL":5,"POSITION":11},"mode":4,"material":2,"indices":4}]},{"primitives":[{"attributes":{"NORMAL":7,"POSITION":12},"mode":4,"material":3,"indices":6}]}],"nodes":[{"name":"papyrus_scroll","extras":{"grip_L":[0.186,0,0.0058],"grip_R":[-0.186,0,0.0058],"source":"original_roman_notice"},"children":[1,2,3,4,5,6]},{"translation":[0,0,0.0032500000670552254],"scale":[0.18000000715255737,0.18000000715255737,0.18000000715255737],"mesh":0},{"translation":[0,0,0.0032500000670552254],"scale":[0.18000000715255737,0.18000000715255737,0.18000000715255737],"mesh":1},{"translation":[-0.175,0,0.0058],"scale":[0.11900000274181366,0.11900000274181366,0.11900000274181366],"mesh":2},{"translation":[-0.175,0,0.0058],"scale":[0.1264999955892563,0.1264999955892563,0.1264999955892563],"mesh":3},{"translation":[0.175,0,0.0058],"scale":[0.11900000274181366,0.11900000274181366,0.11900000274181366],"mesh":2},{"translation":[0.175,0,0.0058],"scale":[0.1264999955892563,0.1264999955892563,0.1264999955892563],"mesh":3}],"scenes":[{"name":"AuxScene","nodes":[0]}],"scene":0,"extensionsUsed":["EXT_meshopt_compression","KHR_mesh_quantization"],"extensionsRequired":["EXT_meshopt_compression","KHR_mesh_quantization"]}