{"asset":{"generator":"glTF-Transform v4.5.1","version":"2.0"},"accessors":[{"type":"SCALAR","componentType":5126,"count":2,"max":[4.400000095367432],"min":[0],"normalized":false,"byteOffset":0,"bufferView":0},{"type":"VEC3","componentType":5126,"count":2,"normalized":false,"byteOffset":0,"bufferView":1},{"type":"SCALAR","componentType":5126,"count":20,"max":[4.400000095367432],"min":[0],"normalized":false,"byteOffset":8,"bufferView":0},{"type":"VEC3","componentType":5126,"count":20,"normalized":false,"byteOffset":24,"bufferView":1},{"type":"VEC4","componentType":5122,"count":2,"normalized":true,"byteOffset":0,"bufferView":2},{"type":"SCALAR","componentType":5126,"count":114,"max":[4.400000095367432],"min":[0],"normalized":false,"byteOffset":88,"bufferView":0},{"type":"VEC3","componentType":5126,"count":114,"normalized":false,"byteOffset":264,"bufferView":1},{"type":"SCALAR","componentType":5126,"count":27,"max":[4.400000095367432],"min":[0],"normalized":false,"byteOffset":544,"bufferView":0},{"type":"VEC3","componentType":5126,"count":27,"normalized":false,"byteOffset":1632,"bufferView":1},{"type":"SCALAR","componentType":5126,"count":92,"max":[4.400000095367432],"min":[0],"normalized":false,"byteOffset":652,"bufferView":0},{"type":"VEC4","componentType":5122,"count":92,"normalized":true,"byteOffset":16,"bufferView":2},{"type":"SCALAR","componentType":5123,"count":600,"normalized":false,"byteOffset":0,"bufferView":3},{"type":"VEC3","componentType":5120,"count":149,"normalized":true,"byteOffset":0,"bufferView":4},{"type":"SCALAR","componentType":5123,"count":1056,"normalized":false,"byteOffset":1200,"bufferView":3},{"type":"VEC3","componentType":5120,"count":219,"normalized":true,"byteOffset":0,"bufferView":5},{"type":"SCALAR","componentType":5123,"count":240,"normalized":false,"byteOffset":3312,"bufferView":3},{"type":"VEC3","componentType":5120,"count":86,"normalized":true,"byteOffset":0,"bufferView":6},{"type":"SCALAR","componentType":5123,"count":6288,"normalized":false,"byteOffset":3792,"bufferView":3},{"type":"VEC3","componentType":5120,"count":1050,"normalized":true,"byteOffset":0,"bufferView":7},{"type":"SCALAR","componentType":5123,"count":36,"normalized":false,"byteOffset":16368,"bufferView":3},{"type":"VEC3","componentType":5120,"count":24,"normalized":true,"byteOffset":0,"bufferView":8},{"type":"SCALAR","componentType":5123,"count":2160,"normalized":false,"byteOffset":16440,"bufferView":3},{"type":"VEC3","componentType":5120,"count":423,"normalized":true,"byteOffset":0,"bufferView":9},{"type":"VEC3","componentType":5122,"count":149,"max":[1420,32767,1420],"min":[-1420,-32767,-1420],"normalized":true,"byteOffset":0,"bufferView":10},{"type":"VEC2","componentType":5123,"count":149,"normalized":true,"byteOffset":0,"bufferView":11},{"type":"VEC3","componentType":5122,"count":219,"max":[32767,32767,32767],"min":[-32767,-32767,-32767],"normalized":true,"byteOffset":0,"bufferView":12},{"type":"VEC2","componentType":5123,"count":219,"normalized":true,"byteOffset":0,"bufferView":13},{"type":"VEC3","componentType":5122,"count":86,"max":[13878,32767,13878],"min":[-13878,-32767,-13878],"normalized":true,"byteOffset":0,"bufferView":14},{"type":"VEC3","componentType":5122,"count":1050,"max":[25904,32767,3013],"min":[-25904,-32767,-3013],"normalized":true,"byteOffset":0,"bufferView":15},{"type":"VEC3","componentType":5122,"count":24,"max":[32767,5334,21337],"min":[-32767,-5334,-21337],"normalized":true,"byteOffset":0,"bufferView":16},{"type":"VEC3","componentType":5122,"count":423,"max":[30489,32528,32767],"min":[-30489,-32528,-32767],"normalized":true,"byteOffset":0,"bufferView":17}],"bufferViews":[{"buffer":1,"byteOffset":0,"byteLength":1020,"extensions":{"EXT_meshopt_compression":{"buffer":0,"byteOffset":0,"byteLength":762,"mode":"ATTRIBUTES","byteStride":4,"count":255}}},{"buffer":1,"byteOffset":1020,"byteLength":1956,"extensions":{"EXT_meshopt_compression":{"buffer":0,"byteOffset":764,"byteLength":777,"mode":"ATTRIBUTES","filter":"EXPONENTIAL","byteStride":12,"count":163}}},{"buffer":1,"byteOffset":2976,"byteLength":752,"extensions":{"EXT_meshopt_compression":{"buffer":0,"byteOffset":1544,"byteLength":327,"mode":"ATTRIBUTES","filter":"QUATERNION","byteStride":8,"count":94}}},{"buffer":1,"byteOffset":3728,"byteLength":20760,"target":34963,"extensions":{"EXT_meshopt_compression":{"buffer":0,"byteOffset":1872,"byteLength":3714,"mode":"TRIANGLES","byteStride":2,"count":10380}}},{"buffer":1,"byteOffset":24488,"byteLength":596,"target":34962,"byteStride":4,"extensions":{"EXT_meshopt_compression":{"buffer":0,"byteOffset":5588,"byteLength":188,"mode":"ATTRIBUTES","filter":"OCTAHEDRAL","byteStride":4,"count":149}}},{"buffer":1,"byteOffset":25084,"byteLength":876,"target":34962,"byteStride":4,"extensions":{"EXT_meshopt_compression":{"buffer":0,"byteOffset":5776,"byteLength":488,"mode":"ATTRIBUTES","filter":"OCTAHEDRAL","byteStride":4,"count":219}}},{"buffer":1,"byteOffset":25960,"byteLength":344,"target":34962,"byteStride":4,"extensions":{"EXT_meshopt_compression":{"buffer":0,"byteOffset":6264,"byteLength":92,"mode":"ATTRIBUTES","filter":"OCTAHEDRAL","byteStride":4,"count":86}}},{"buffer":1,"byteOffset":26304,"byteLength":4200,"target":34962,"byteStride":4,"extensions":{"EXT_meshopt_compression":{"buffer":0,"byteOffset":6356,"byteLength":1487,"mode":"ATTRIBUTES","filter":"OCTAHEDRAL","byteStride":4,"count":1050}}},{"buffer":1,"byteOffset":30504,"byteLength":96,"target":34962,"byteStride":4,"extensions":{"EXT_meshopt_compression":{"buffer":0,"byteOffset":7844,"byteLength":60,"mode":"ATTRIBUTES","filter":"OCTAHEDRAL","byteStride":4,"count":24}}},{"buffer":1,"byteOffset":30600,"byteLength":1692,"target":34962,"byteStride":4,"extensions":{"EXT_meshopt_compression":{"buffer":0,"byteOffset":7904,"byteLength":914,"mode":"ATTRIBUTES","filter":"OCTAHEDRAL","byteStride":4,"count":423}}},{"buffer":1,"byteOffset":32292,"byteLength":1192,"target":34962,"byteStride":8,"extensions":{"EXT_meshopt_compression":{"buffer":0,"byteOffset":8820,"byteLength":596,"mode":"ATTRIBUTES","byteStride":8,"count":149}}},{"buffer":1,"byteOffset":33484,"byteLength":596,"target":34962,"byteStride":4,"extensions":{"EXT_meshopt_compression":{"buffer":0,"byteOffset":9416,"byteLength":536,"mode":"ATTRIBUTES","byteStride":4,"count":149}}},{"buffer":1,"byteOffset":34080,"byteLength":1752,"target":34962,"byteStride":8,"extensions":{"EXT_meshopt_compression":{"buffer":0,"byteOffset":9952,"byteLength":1303,"mode":"ATTRIBUTES","byteStride":8,"count":219}}},{"buffer":1,"byteOffset":35832,"byteLength":876,"target":34962,"byteStride":4,"extensions":{"EXT_meshopt_compression":{"buffer":0,"byteOffset":11256,"byteLength":669,"mode":"ATTRIBUTES","byteStride":4,"count":219}}},{"buffer":1,"byteOffset":36708,"byteLength":688,"target":34962,"byteStride":8,"extensions":{"EXT_meshopt_compression":{"buffer":0,"byteOffset":11928,"byteLength":454,"mode":"ATTRIBUTES","byteStride":8,"count":86}}},{"buffer":1,"byteOffset":37396,"byteLength":8400,"target":34962,"byteStride":8,"extensions":{"EXT_meshopt_compression":{"buffer":0,"byteOffset":12384,"byteLength":5917,"mode":"ATTRIBUTES","byteStride":8,"count":1050}}},{"buffer":1,"byteOffset":45796,"byteLength":192,"target":34962,"byteStride":8,"extensions":{"EXT_meshopt_compression":{"buffer":0,"byteOffset":18304,"byteLength":152,"mode":"ATTRIBUTES","byteStride":8,"count":24}}},{"buffer":1,"byteOffset":45988,"byteLength":3384,"target":34962,"byteStride":8,"extensions":{"EXT_meshopt_compression":{"buffer":0,"byteOffset":18456,"byteLength":2574,"mode":"ATTRIBUTES","byteStride":8,"count":423}}}],"samplers":[{"wrapS":10497,"wrapT":10497}],"textures":[{"source":0,"sampler":0},{"source":1,"sampler":0},{"source":2,"sampler":0}],"images":[{"name":"wood_albedo","mimeType":"image/png","uri":"../textures/cc1076af92e734b02c5d.png"},{"name":"wood_normal","mimeType":"image/png","uri":"../textures/95a7d373f8dd63af7d15.png"},{"name":"wood_roughness","mimeType":"image/png","uri":"../textures/24356be8f8e9686740a4.png"}],"buffers":[{"uri":"prop-shovel.bin","byteLength":21032},{"byteLength":49372,"extensions":{"EXT_meshopt_compression":{"fallback":true}}}],"materials":[{"name":"tool_wood","pbrMetallicRoughness":{"baseColorFactor":[0.24620132669705552,0.10702310296918527,0.035601314869097636,1],"roughnessFactor":0.85,"metallicFactor":0,"baseColorTexture":{"index":0},"metallicRoughnessTexture":{"index":2}},"normalTexture":{"index":1,"scale":0.35}},{"pbrMetallicRoughness":{"baseColorFactor":[0.33245153633549385,0.3915724777393922,0.407240211891531,1],"roughnessFactor":0.42,"metallicFactor":0.65}},{"pbrMetallicRoughness":{"baseColorFactor":[0.1844749944900301,0.08650046202808521,0.04373502925049377,1],"metallicFactor":0}}],"meshes":[{"primitives":[{"attributes":{"NORMAL":12,"POSITION":23,"TEXCOORD_0":24},"mode":4,"material":0,"indices":11}]},{"primitives":[{"attributes":{"NORMAL":14,"POSITION":25,"TEXCOORD_0":26},"mode":4,"material":0,"indices":13}]},{"primitives":[{"attributes":{"NORMAL":16,"POSITION":27},"mode":4,"material":1,"indices":15}]},{"primitives":[{"attributes":{"NORMAL":18,"POSITION":28},"mode":4,"material":1,"indices":17}]},{"primitives":[{"attributes":{"NORMAL":20,"POSITION":29},"mode":4,"material":1,"indices":19}]},{"primitives":[{"attributes":{"NORMAL":22,"POSITION":30},"mode":4,"material":2,"indices":21}]}],"nodes":[{"name":"shovel","children":[1,2,3,4,5,6,7,8]},{"name":"spade_shaft","translation":[0,-0.015,0],"scale":[0.30000001192092896,0.30000001192092896,0.30000001192092896],"mesh":0},{"name":"spade_grip_end","translation":[0,0.288,0],"scale":[0.0135,0.019,0.0135],"mesh":1},{"name":"spade_socket","translation":[0,-0.282,0],"scale":[0.042500000447034836,0.042500000447034836,0.042500000447034836],"mesh":2},{"name":"spade_blade","translation":[0,-0.37599998712539673,0.003955129417590797],"scale":[0.07400000095367432,0.07400000095367432,0.07400000095367432],"mesh":3},{"name":"spade_step_-1","translation":[-0.038,-0.301,0],"scale":[0.0215000007301569,0.0215000007301569,0.0215000007301569],"mesh":4},{"name":"spade_step_1","translation":[0.038,-0.301,0],"scale":[0.0215000007301569,0.0215000007301569,0.0215000007301569],"mesh":4},{"name":"spade_soil_load","translation":[0,-0.375,0.03],"scale":[0,0,0],"children":[9]},{"name":"spade_soil_drop","translation":[-0.07504518149045473,-0.230267917164174,0.31006510992330505],"rotation":[0.08987854919801104,0,0,0.9959527330119943],"scale":[0,0,0],"children":[10]},{"translation":[-0.016024887561798096,-0.0072517991065979,0],"scale":[1.094069480895996,1.094069480895996,1.094069480895996],"mesh":5},{"translation":[-0.016024887561798096,-0.0072517991065979,0],"scale":[1.094069480895996,1.094069480895996,1.094069480895996],"mesh":5}],"animations":[{"name":"dig","samplers":[{"input":0,"output":1,"interpolation":"LINEAR"},{"input":2,"output":3,"interpolation":"LINEAR"},{"input":0,"output":4,"interpolation":"LINEAR"},{"input":5,"output":6,"interpolation":"LINEAR"},{"input":7,"output":8,"interpolation":"LINEAR"},{"input":9,"output":10,"interpolation":"LINEAR"}],"channels":[{"sampler":0,"target":{"node":7,"path":"translation"}},{"sampler":1,"target":{"node":7,"path":"scale"}},{"sampler":2,"target":{"node":7,"path":"rotation"}},{"sampler":3,"target":{"node":8,"path":"translation"}},{"sampler":4,"target":{"node":8,"path":"scale"}},{"sampler":5,"target":{"node":8,"path":"rotation"}}]}],"scenes":[{"name":"AuxScene","nodes":[0]}],"scene":0,"extensionsUsed":["EXT_meshopt_compression","KHR_mesh_quantization"],"extensionsRequired":["EXT_meshopt_compression","KHR_mesh_quantization"]}