{"asset":{"generator":"glTF-Transform v4.5.1","version":"2.0"},"accessors":[{"type":"SCALAR","componentType":5126,"count":2,"max":[0.800000011920929],"min":[0],"normalized":false,"byteOffset":0,"bufferView":0},{"type":"VEC4","componentType":5122,"count":2,"normalized":true,"byteOffset":0,"bufferView":1},{"type":"VEC4","componentType":5122,"count":2,"normalized":true,"byteOffset":16,"bufferView":1},{"type":"SCALAR","componentType":5123,"count":36,"normalized":false,"byteOffset":0,"bufferView":2},{"type":"VEC3","componentType":5120,"count":24,"normalized":true,"byteOffset":0,"bufferView":3},{"type":"SCALAR","componentType":5123,"count":192,"normalized":false,"byteOffset":72,"bufferView":2},{"type":"VEC3","componentType":5120,"count":70,"normalized":true,"byteOffset":0,"bufferView":4},{"type":"VEC3","componentType":5122,"count":24,"max":[32767,1578,17476],"min":[-32767,-1578,-17476],"normalized":true,"byteOffset":0,"bufferView":5},{"type":"VEC2","componentType":5123,"count":24,"normalized":true,"byteOffset":0,"bufferView":6},{"type":"VEC3","componentType":5122,"count":24,"max":[2769,3692,32767],"min":[-2769,-3692,-32767],"normalized":true,"byteOffset":0,"bufferView":7},{"type":"VEC3","componentType":5122,"count":24,"max":[7123,32767,7123],"min":[-7123,-32767,-7123],"normalized":true,"byteOffset":0,"bufferView":8},{"type":"VEC3","componentType":5122,"count":24,"max":[32767,4191,6477],"min":[-32767,-4191,-6477],"normalized":true,"byteOffset":0,"bufferView":9},{"type":"VEC3","componentType":5122,"count":24,"max":[32767,15677,1028],"min":[-32767,-15677,-1028],"normalized":true,"byteOffset":0,"bufferView":10},{"type":"VEC3","componentType":5122,"count":24,"max":[2268,30751,32767],"min":[-2268,-30751,-32767],"normalized":true,"byteOffset":0,"bufferView":11},{"type":"VEC3","componentType":5122,"count":24,"max":[32767,1156,16705],"min":[-32767,-1156,-16705],"normalized":true,"byteOffset":0,"bufferView":12},{"type":"VEC3","componentType":5122,"count":24,"max":[2092,31373,32767],"min":[-2092,-31373,-32767],"normalized":true,"byteOffset":0,"bufferView":13},{"type":"VEC3","componentType":5122,"count":70,"max":[10922,32767,10922],"min":[-10922,-32767,-10922],"normalized":true,"byteOffset":0,"bufferView":14},{"type":"VEC3","componentType":5122,"count":24,"max":[29126,32767,7282],"min":[-29126,-32767,-7282],"normalized":true,"byteOffset":0,"bufferView":15}],"bufferViews":[{"buffer":1,"byteOffset":0,"byteLength":8,"extensions":{"EXT_meshopt_compression":{"buffer":0,"byteOffset":0,"byteLength":57,"mode":"ATTRIBUTES","byteStride":4,"count":2}}},{"buffer":1,"byteOffset":8,"byteLength":32,"extensions":{"EXT_meshopt_compression":{"buffer":0,"byteOffset":60,"byteLength":53,"mode":"ATTRIBUTES","filter":"QUATERNION","byteStride":8,"count":4}}},{"buffer":1,"byteOffset":40,"byteLength":456,"target":34963,"extensions":{"EXT_meshopt_compression":{"buffer":0,"byteOffset":116,"byteLength":94,"mode":"TRIANGLES","byteStride":2,"count":228}}},{"buffer":1,"byteOffset":496,"byteLength":96,"target":34962,"byteStride":4,"extensions":{"EXT_meshopt_compression":{"buffer":0,"byteOffset":212,"byteLength":60,"mode":"ATTRIBUTES","filter":"OCTAHEDRAL","byteStride":4,"count":24}}},{"buffer":1,"byteOffset":592,"byteLength":280,"target":34962,"byteStride":4,"extensions":{"EXT_meshopt_compression":{"buffer":0,"byteOffset":272,"byteLength":88,"mode":"ATTRIBUTES","filter":"OCTAHEDRAL","byteStride":4,"count":70}}},{"buffer":1,"byteOffset":872,"byteLength":192,"target":34962,"byteStride":8,"extensions":{"EXT_meshopt_compression":{"buffer":0,"byteOffset":360,"byteLength":152,"mode":"ATTRIBUTES","byteStride":8,"count":24}}},{"buffer":1,"byteOffset":1064,"byteLength":96,"target":34962,"byteStride":4,"extensions":{"EXT_meshopt_compression":{"buffer":0,"byteOffset":512,"byteLength":69,"mode":"ATTRIBUTES","byteStride":4,"count":24}}},{"buffer":1,"byteOffset":1160,"byteLength":192,"target":34962,"byteStride":8,"extensions":{"EXT_meshopt_compression":{"buffer":0,"byteOffset":584,"byteLength":143,"mode":"ATTRIBUTES","byteStride":8,"count":24}}},{"buffer":1,"byteOffset":1352,"byteLength":192,"target":34962,"byteStride":8,"extensions":{"EXT_meshopt_compression":{"buffer":0,"byteOffset":728,"byteLength":133,"mode":"ATTRIBUTES","byteStride":8,"count":24}}},{"buffer":1,"byteOffset":1544,"byteLength":192,"target":34962,"byteStride":8,"extensions":{"EXT_meshopt_compression":{"buffer":0,"byteOffset":864,"byteLength":152,"mode":"ATTRIBUTES","byteStride":8,"count":24}}},{"buffer":1,"byteOffset":1736,"byteLength":192,"target":34962,"byteStride":8,"extensions":{"EXT_meshopt_compression":{"buffer":0,"byteOffset":1016,"byteLength":152,"mode":"ATTRIBUTES","byteStride":8,"count":24}}},{"buffer":1,"byteOffset":1928,"byteLength":192,"target":34962,"byteStride":8,"extensions":{"EXT_meshopt_compression":{"buffer":0,"byteOffset":1168,"byteLength":143,"mode":"ATTRIBUTES","byteStride":8,"count":24}}},{"buffer":1,"byteOffset":2120,"byteLength":192,"target":34962,"byteStride":8,"extensions":{"EXT_meshopt_compression":{"buffer":0,"byteOffset":1312,"byteLength":152,"mode":"ATTRIBUTES","byteStride":8,"count":24}}},{"buffer":1,"byteOffset":2312,"byteLength":192,"target":34962,"byteStride":8,"extensions":{"EXT_meshopt_compression":{"buffer":0,"byteOffset":1464,"byteLength":143,"mode":"ATTRIBUTES","byteStride":8,"count":24}}},{"buffer":1,"byteOffset":2504,"byteLength":560,"target":34962,"byteStride":8,"extensions":{"EXT_meshopt_compression":{"buffer":0,"byteOffset":1608,"byteLength":353,"mode":"ATTRIBUTES","byteStride":8,"count":70}}},{"buffer":1,"byteOffset":3064,"byteLength":192,"target":34962,"byteStride":8,"extensions":{"EXT_meshopt_compression":{"buffer":0,"byteOffset":1964,"byteLength":133,"mode":"ATTRIBUTES","byteStride":8,"count":24}}}],"samplers":[{"wrapS":10497,"wrapT":10497}],"textures":[{"source":0,"sampler":0},{"source":1,"sampler":0},{"source":2,"sampler":0}],"images":[{"name":"wood_albedo","mimeType":"image/png","uri":"../textures/cc1076af92e734b02c5d.png"},{"name":"wood_normal","mimeType":"image/png","uri":"../textures/95a7d373f8dd63af7d15.png"},{"name":"wood_roughness","mimeType":"image/png","uri":"../textures/24356be8f8e9686740a4.png"}],"buffers":[{"uri":"prop-toolbox.bin","byteLength":2100},{"byteLength":3256,"extensions":{"EXT_meshopt_compression":{"fallback":true}}}],"materials":[{"name":"tool_wood","pbrMetallicRoughness":{"baseColorFactor":[0.1912016827303171,0.09084171117479915,0.031896033067374104,1],"roughnessFactor":0.82,"metallicFactor":0,"baseColorTexture":{"index":0},"metallicRoughnessTexture":{"index":2}},"normalTexture":{"index":1,"scale":0.35}},{"name":"toolbox_hardware","pbrMetallicRoughness":{"baseColorFactor":[0.13013647668074665,0.11443537381770343,0.08437621153575764,1],"roughnessFactor":0.44,"metallicFactor":0.7}}],"meshes":[{"primitives":[{"attributes":{"NORMAL":4,"POSITION":7,"TEXCOORD_0":8},"mode":4,"material":0,"indices":3}]},{"primitives":[{"attributes":{"POSITION":9,"NORMAL":4},"mode":4,"material":1,"indices":3}]},{"primitives":[{"attributes":{"POSITION":10,"NORMAL":4},"mode":4,"material":1,"indices":3}]},{"primitives":[{"attributes":{"POSITION":11,"NORMAL":4,"TEXCOORD_0":8},"mode":4,"material":0,"indices":3}]},{"primitives":[{"attributes":{"POSITION":12,"NORMAL":4,"TEXCOORD_0":8},"mode":4,"material":0,"indices":3}]},{"primitives":[{"attributes":{"POSITION":13,"NORMAL":4,"TEXCOORD_0":8},"mode":4,"material":0,"indices":3}]},{"primitives":[{"attributes":{"POSITION":14,"NORMAL":4,"TEXCOORD_0":8},"mode":4,"material":0,"indices":3}]},{"primitives":[{"attributes":{"POSITION":15,"NORMAL":4},"mode":4,"material":1,"indices":3}]},{"primitives":[{"attributes":{"NORMAL":6,"POSITION":16},"mode":4,"material":1,"indices":5}]},{"primitives":[{"attributes":{"POSITION":17,"NORMAL":4},"mode":4,"material":1,"indices":3}]}],"nodes":[{"name":"toolbox","extras":{"status":"articulated_prop","joints":["toolbox_root","toolbox_lid","toolbox_handle"],"gripPivot":[0,0,0],"mechanism":"rear_lid_hinge","appearanceVariant":"base","size":1},"children":[1]},{"name":"toolbox_root","children":[2,6,10,11,12,13,14,15,16,17,18,19]},{"name":"toolbox_lid","translation":[0,-0.05,-0.065],"children":[3,4,5]},{"translation":[0,0,0.065],"scale":[0.13500000536441803,0.13500000536441803,0.13500000536441803],"mesh":0},{"translation":[-0.108,0,0.065],"scale":[0.07100000232458115,0.07100000232458115,0.07100000232458115],"mesh":1},{"translation":[0.108,0,0.065],"scale":[0.07100000232458115,0.07100000232458115,0.07100000232458115],"mesh":1},{"name":"toolbox_handle","children":[7,8,9]},{"translation":[-0.038,-0.02,0],"scale":[0.023000000044703484,0.023000000044703484,0.023000000044703484],"mesh":2},{"translation":[0.038,-0.02,0],"scale":[0.023000000044703484,0.023000000044703484,0.023000000044703484],"mesh":2},{"scale":[0.0430000014603138,0.0430000014603138,0.0430000014603138],"mesh":3},{"translation":[0,-0.12,-0.065],"scale":[0.1274999976158142,0.1274999976158142,0.1274999976158142],"mesh":4},{"translation":[0,-0.12,0.065],"scale":[0.1274999976158142,0.1274999976158142,0.1274999976158142],"mesh":4},{"translation":[-0.128,-0.12,0],"scale":[0.06499999761581421,0.06499999761581421,0.06499999761581421],"mesh":5},{"translation":[0.128,-0.12,0],"scale":[0.06499999761581421,0.06499999761581421,0.06499999761581421],"mesh":5},{"translation":[0,-0.184,0],"scale":[0.1274999976158142,0.1274999976158142,0.1274999976158142],"mesh":6},{"translation":[-0.108,-0.12,0],"scale":[0.07050000131130219,0.07050000131130219,0.07050000131130219],"mesh":7},{"translation":[-0.075,-0.05,-0.065],"rotation":[0,0,0.7071067811865475,0.7071067811865476],"scale":[0.017999999225139618,0.017999999225139618,0.017999999225139618],"mesh":8},{"translation":[0.108,-0.12,0],"scale":[0.07050000131130219,0.07050000131130219,0.07050000131130219],"mesh":7},{"translation":[0.075,-0.05,-0.065],"rotation":[0,0,0.7071067811865475,0.7071067811865476],"scale":[0.017999999225139618,0.017999999225139618,0.017999999225139618],"mesh":8},{"translation":[0,-0.071,0.073],"scale":[0.013500000350177288,0.013500000350177288,0.013500000350177288],"mesh":9}],"animations":[{"name":"toolbox_open","samplers":[{"input":0,"output":1,"interpolation":"LINEAR"}],"channels":[{"sampler":0,"target":{"node":2,"path":"rotation"}}]},{"name":"toolbox_close","samplers":[{"input":0,"output":2,"interpolation":"LINEAR"}],"channels":[{"sampler":0,"target":{"node":2,"path":"rotation"}}]}],"scenes":[{"name":"AuxScene","nodes":[0]}],"scene":0,"extensionsUsed":["EXT_meshopt_compression","KHR_mesh_quantization"],"extensionsRequired":["EXT_meshopt_compression","KHR_mesh_quantization"]}