{"asset":{"generator":"glTF-Transform v4.5.1","version":"2.0"},"accessors":[{"type":"SCALAR","componentType":5126,"count":73,"max":[2.4000000953674316],"min":[0],"normalized":false,"byteOffset":0,"bufferView":1},{"type":"VEC4","componentType":5122,"count":73,"normalized":true,"byteOffset":0,"bufferView":2},{"type":"SCALAR","componentType":5126,"count":121,"max":[4],"min":[0],"normalized":false,"byteOffset":292,"bufferView":1},{"type":"VEC4","componentType":5122,"count":121,"normalized":true,"byteOffset":584,"bufferView":2},{"type":"VEC4","componentType":5122,"count":121,"normalized":true,"byteOffset":1552,"bufferView":2},{"type":"VEC3","componentType":5126,"count":28,"normalized":false,"byteOffset":0,"bufferView":3},{"type":"SCALAR","componentType":5126,"count":2,"max":[2.4000000953674316],"min":[0],"normalized":false,"byteOffset":776,"bufferView":1},{"type":"VEC4","componentType":5122,"count":2,"normalized":true,"byteOffset":2520,"bufferView":2},{"type":"VEC3","componentType":5126,"count":2,"normalized":false,"byteOffset":336,"bufferView":3},{"type":"SCALAR","componentType":5126,"count":57,"max":[2.4000000953674316],"min":[0],"normalized":false,"byteOffset":784,"bufferView":1},{"type":"VEC3","componentType":5126,"count":57,"normalized":false,"byteOffset":360,"bufferView":3},{"type":"VEC3","componentType":5126,"count":2,"normalized":false,"byteOffset":1044,"bufferView":3},{"type":"VEC3","componentType":5126,"count":57,"normalized":false,"byteOffset":1068,"bufferView":3},{"type":"SCALAR","componentType":5126,"count":49,"max":[2.4000000953674316],"min":[0],"normalized":false,"byteOffset":1012,"bufferView":1},{"type":"VEC4","componentType":5122,"count":49,"normalized":true,"byteOffset":2536,"bufferView":2},{"type":"SCALAR","componentType":5126,"count":42,"max":[2.4000000953674316],"min":[0],"normalized":false,"byteOffset":1208,"bufferView":1},{"type":"VEC3","componentType":5126,"count":42,"normalized":false,"byteOffset":1752,"bufferView":3},{"type":"VEC3","componentType":5126,"count":57,"normalized":false,"byteOffset":2256,"bufferView":3},{"type":"VEC4","componentType":5122,"count":49,"normalized":true,"byteOffset":2928,"bufferView":2},{"type":"VEC3","componentType":5126,"count":42,"normalized":false,"byteOffset":2940,"bufferView":3},{"type":"VEC3","componentType":5126,"count":57,"normalized":false,"byteOffset":3444,"bufferView":3},{"type":"VEC4","componentType":5122,"count":49,"normalized":true,"byteOffset":3320,"bufferView":2},{"type":"VEC3","componentType":5126,"count":42,"normalized":false,"byteOffset":4128,"bufferView":3},{"type":"VEC3","componentType":5126,"count":57,"normalized":false,"byteOffset":4632,"bufferView":3},{"type":"VEC4","componentType":5122,"count":49,"normalized":true,"byteOffset":3712,"bufferView":2},{"type":"VEC3","componentType":5126,"count":42,"normalized":false,"byteOffset":5316,"bufferView":3},{"type":"VEC3","componentType":5126,"count":57,"normalized":false,"byteOffset":5820,"bufferView":3},{"type":"VEC4","componentType":5122,"count":49,"normalized":true,"byteOffset":4104,"bufferView":2},{"type":"VEC3","componentType":5126,"count":42,"normalized":false,"byteOffset":6504,"bufferView":3},{"type":"VEC3","componentType":5126,"count":57,"normalized":false,"byteOffset":7008,"bufferView":3},{"type":"VEC4","componentType":5122,"count":49,"normalized":true,"byteOffset":4496,"bufferView":2},{"type":"VEC3","componentType":5126,"count":42,"normalized":false,"byteOffset":7692,"bufferView":3},{"type":"VEC3","componentType":5126,"count":57,"normalized":false,"byteOffset":8196,"bufferView":3},{"type":"VEC4","componentType":5122,"count":49,"normalized":true,"byteOffset":4888,"bufferView":2},{"type":"VEC3","componentType":5126,"count":42,"normalized":false,"byteOffset":8880,"bufferView":3},{"type":"VEC3","componentType":5126,"count":57,"normalized":false,"byteOffset":9384,"bufferView":3},{"type":"VEC4","componentType":5122,"count":49,"normalized":true,"byteOffset":5280,"bufferView":2},{"type":"VEC3","componentType":5126,"count":42,"normalized":false,"byteOffset":10068,"bufferView":3},{"type":"VEC3","componentType":5126,"count":57,"normalized":false,"byteOffset":10572,"bufferView":3},{"type":"VEC4","componentType":5122,"count":49,"normalized":true,"byteOffset":5672,"bufferView":2},{"type":"VEC3","componentType":5126,"count":42,"normalized":false,"byteOffset":11256,"bufferView":3},{"type":"VEC3","componentType":5126,"count":57,"normalized":false,"byteOffset":11760,"bufferView":3},{"type":"VEC4","componentType":5122,"count":49,"normalized":true,"byteOffset":6064,"bufferView":2},{"type":"VEC3","componentType":5126,"count":42,"normalized":false,"byteOffset":12444,"bufferView":3},{"type":"VEC3","componentType":5126,"count":57,"normalized":false,"byteOffset":12948,"bufferView":3},{"type":"VEC4","componentType":5122,"count":49,"normalized":true,"byteOffset":6456,"bufferView":2},{"type":"VEC3","componentType":5126,"count":42,"normalized":false,"byteOffset":13632,"bufferView":3},{"type":"VEC3","componentType":5126,"count":57,"normalized":false,"byteOffset":14136,"bufferView":3},{"type":"VEC4","componentType":5122,"count":49,"normalized":true,"byteOffset":6848,"bufferView":2},{"type":"VEC3","componentType":5126,"count":42,"normalized":false,"byteOffset":14820,"bufferView":3},{"type":"VEC3","componentType":5126,"count":2,"normalized":false,"byteOffset":15324,"bufferView":3},{"type":"SCALAR","componentType":5126,"count":81,"max":[4],"min":[0],"normalized":false,"byteOffset":1376,"bufferView":1},{"type":"VEC3","componentType":5126,"count":81,"normalized":false,"byteOffset":15348,"bufferView":3},{"type":"SCALAR","componentType":5126,"count":4,"max":[4],"min":[0],"normalized":false,"byteOffset":1700,"bufferView":1},{"type":"VEC3","componentType":5126,"count":4,"normalized":false,"byteOffset":16320,"bufferView":3},{"type":"SCALAR","componentType":5126,"count":10,"max":[4],"min":[0],"normalized":false,"byteOffset":1716,"bufferView":1},{"type":"VEC4","componentType":5122,"count":10,"normalized":true,"byteOffset":7240,"bufferView":2},{"type":"SCALAR","componentType":5126,"count":10,"max":[4],"min":[0],"normalized":false,"byteOffset":1756,"bufferView":1},{"type":"VEC3","componentType":5126,"count":10,"normalized":false,"byteOffset":16368,"bufferView":3},{"type":"SCALAR","componentType":5126,"count":13,"max":[4],"min":[0],"normalized":false,"byteOffset":1796,"bufferView":1},{"type":"VEC3","componentType":5126,"count":13,"normalized":false,"byteOffset":16488,"bufferView":3},{"type":"VEC4","componentType":5122,"count":10,"normalized":true,"byteOffset":7320,"bufferView":2},{"type":"VEC3","componentType":5126,"count":10,"normalized":false,"byteOffset":16644,"bufferView":3},{"type":"SCALAR","componentType":5126,"count":22,"max":[4],"min":[0],"normalized":false,"byteOffset":1848,"bufferView":1},{"type":"VEC3","componentType":5126,"count":22,"normalized":false,"byteOffset":16764,"bufferView":3},{"type":"VEC4","componentType":5122,"count":10,"normalized":true,"byteOffset":7400,"bufferView":2},{"type":"VEC3","componentType":5126,"count":10,"normalized":false,"byteOffset":17028,"bufferView":3},{"type":"SCALAR","componentType":5126,"count":27,"max":[4],"min":[0],"normalized":false,"byteOffset":1936,"bufferView":1},{"type":"VEC3","componentType":5126,"count":27,"normalized":false,"byteOffset":17148,"bufferView":3},{"type":"VEC4","componentType":5122,"count":10,"normalized":true,"byteOffset":7480,"bufferView":2},{"type":"VEC3","componentType":5126,"count":10,"normalized":false,"byteOffset":17472,"bufferView":3},{"type":"SCALAR","componentType":5126,"count":35,"max":[4],"min":[0],"normalized":false,"byteOffset":2044,"bufferView":1},{"type":"VEC3","componentType":5126,"count":35,"normalized":false,"byteOffset":17592,"bufferView":3},{"type":"SCALAR","componentType":5126,"count":10,"max":[4],"min":[0],"normalized":false,"byteOffset":2184,"bufferView":1},{"type":"VEC4","componentType":5122,"count":10,"normalized":true,"byteOffset":7560,"bufferView":2},{"type":"VEC3","componentType":5126,"count":10,"normalized":false,"byteOffset":18012,"bufferView":3},{"type":"SCALAR","componentType":5126,"count":41,"max":[4],"min":[0],"normalized":false,"byteOffset":2224,"bufferView":1},{"type":"VEC3","componentType":5126,"count":41,"normalized":false,"byteOffset":18132,"bufferView":3},{"type":"SCALAR","componentType":5126,"count":11,"max":[4],"min":[0],"normalized":false,"byteOffset":2388,"bufferView":1},{"type":"VEC4","componentType":5122,"count":11,"normalized":true,"byteOffset":7640,"bufferView":2},{"type":"VEC3","componentType":5126,"count":10,"normalized":false,"byteOffset":18624,"bufferView":3},{"type":"SCALAR","componentType":5126,"count":45,"max":[4],"min":[0],"normalized":false,"byteOffset":2432,"bufferView":1},{"type":"VEC3","componentType":5126,"count":45,"normalized":false,"byteOffset":18744,"bufferView":3},{"type":"SCALAR","componentType":5126,"count":11,"max":[4],"min":[0],"normalized":false,"byteOffset":2612,"bufferView":1},{"type":"VEC4","componentType":5122,"count":11,"normalized":true,"byteOffset":7728,"bufferView":2},{"type":"VEC3","componentType":5126,"count":10,"normalized":false,"byteOffset":19284,"bufferView":3},{"type":"SCALAR","componentType":5126,"count":49,"max":[4],"min":[0],"normalized":false,"byteOffset":2656,"bufferView":1},{"type":"VEC3","componentType":5126,"count":49,"normalized":false,"byteOffset":19404,"bufferView":3},{"type":"VEC4","componentType":5122,"count":11,"normalized":true,"byteOffset":7816,"bufferView":2},{"type":"VEC3","componentType":5126,"count":10,"normalized":false,"byteOffset":19992,"bufferView":3},{"type":"SCALAR","componentType":5126,"count":58,"max":[4],"min":[0],"normalized":false,"byteOffset":2852,"bufferView":1},{"type":"VEC3","componentType":5126,"count":58,"normalized":false,"byteOffset":20112,"bufferView":3},{"type":"SCALAR","componentType":5126,"count":11,"max":[4],"min":[0],"normalized":false,"byteOffset":3084,"bufferView":1},{"type":"VEC4","componentType":5122,"count":11,"normalized":true,"byteOffset":7904,"bufferView":2},{"type":"VEC3","componentType":5126,"count":10,"normalized":false,"byteOffset":20808,"bufferView":3},{"type":"SCALAR","componentType":5126,"count":63,"max":[4],"min":[0],"normalized":false,"byteOffset":3128,"bufferView":1},{"type":"VEC3","componentType":5126,"count":63,"normalized":false,"byteOffset":20928,"bufferView":3},{"type":"VEC4","componentType":5122,"count":11,"normalized":true,"byteOffset":7992,"bufferView":2},{"type":"VEC3","componentType":5126,"count":10,"normalized":false,"byteOffset":21684,"bufferView":3},{"type":"SCALAR","componentType":5126,"count":72,"max":[4],"min":[0],"normalized":false,"byteOffset":3380,"bufferView":1},{"type":"VEC3","componentType":5126,"count":72,"normalized":false,"byteOffset":21804,"bufferView":3},{"type":"SCALAR","componentType":5126,"count":13,"max":[4],"min":[0],"normalized":false,"byteOffset":3668,"bufferView":1},{"type":"VEC4","componentType":5122,"count":13,"normalized":true,"byteOffset":8080,"bufferView":2},{"type":"VEC3","componentType":5126,"count":10,"normalized":false,"byteOffset":22668,"bufferView":3},{"type":"SCALAR","componentType":5126,"count":79,"max":[4],"min":[0],"normalized":false,"byteOffset":3720,"bufferView":1},{"type":"VEC3","componentType":5126,"count":79,"normalized":false,"byteOffset":22788,"bufferView":3},{"type":"SCALAR","componentType":5126,"count":13,"max":[4],"min":[0],"normalized":false,"byteOffset":4036,"bufferView":1},{"type":"VEC4","componentType":5122,"count":13,"normalized":true,"byteOffset":8184,"bufferView":2},{"type":"VEC3","componentType":5126,"count":10,"normalized":false,"byteOffset":23736,"bufferView":3},{"type":"VEC3","componentType":5126,"count":49,"normalized":false,"byteOffset":23856,"bufferView":3},{"type":"SCALAR","componentType":5126,"count":110,"max":[4],"min":[0],"normalized":false,"byteOffset":4088,"bufferView":1},{"type":"VEC3","componentType":5126,"count":110,"normalized":false,"byteOffset":24444,"bufferView":3},{"type":"SCALAR","componentType":5126,"count":18,"max":[4],"min":[0],"normalized":false,"byteOffset":4528,"bufferView":1},{"type":"VEC3","componentType":5126,"count":18,"normalized":false,"byteOffset":25764,"bufferView":3},{"type":"SCALAR","componentType":5126,"count":107,"max":[4],"min":[0],"normalized":false,"byteOffset":4600,"bufferView":1},{"type":"VEC3","componentType":5126,"count":107,"normalized":false,"byteOffset":25980,"bufferView":3},{"type":"SCALAR","componentType":5126,"count":109,"max":[4],"min":[0],"normalized":false,"byteOffset":5028,"bufferView":1},{"type":"VEC4","componentType":5122,"count":109,"normalized":true,"byteOffset":8288,"bufferView":2},{"type":"SCALAR","componentType":5126,"count":100,"max":[4],"min":[0],"normalized":false,"byteOffset":5464,"bufferView":1},{"type":"VEC3","componentType":5126,"count":100,"normalized":false,"byteOffset":27264,"bufferView":3},{"type":"VEC3","componentType":5126,"count":110,"normalized":false,"byteOffset":28464,"bufferView":3},{"type":"VEC4","componentType":5122,"count":109,"normalized":true,"byteOffset":9160,"bufferView":2},{"type":"VEC3","componentType":5126,"count":100,"normalized":false,"byteOffset":29784,"bufferView":3},{"type":"VEC3","componentType":5126,"count":110,"normalized":false,"byteOffset":30984,"bufferView":3},{"type":"VEC4","componentType":5122,"count":109,"normalized":true,"byteOffset":10032,"bufferView":2},{"type":"VEC3","componentType":5126,"count":100,"normalized":false,"byteOffset":32304,"bufferView":3},{"type":"VEC3","componentType":5126,"count":110,"normalized":false,"byteOffset":33504,"bufferView":3},{"type":"VEC4","componentType":5122,"count":109,"normalized":true,"byteOffset":10904,"bufferView":2},{"type":"VEC3","componentType":5126,"count":100,"normalized":false,"byteOffset":34824,"bufferView":3},{"type":"VEC3","componentType":5126,"count":110,"normalized":false,"byteOffset":36024,"bufferView":3},{"type":"VEC4","componentType":5122,"count":109,"normalized":true,"byteOffset":11776,"bufferView":2},{"type":"VEC3","componentType":5126,"count":100,"normalized":false,"byteOffset":37344,"bufferView":3},{"type":"VEC3","componentType":5126,"count":110,"normalized":false,"byteOffset":38544,"bufferView":3},{"type":"VEC4","componentType":5122,"count":109,"normalized":true,"byteOffset":12648,"bufferView":2},{"type":"VEC3","componentType":5126,"count":100,"normalized":false,"byteOffset":39864,"bufferView":3},{"type":"VEC3","componentType":5126,"count":110,"normalized":false,"byteOffset":41064,"bufferView":3},{"type":"VEC4","componentType":5122,"count":109,"normalized":true,"byteOffset":13520,"bufferView":2},{"type":"VEC3","componentType":5126,"count":100,"normalized":false,"byteOffset":42384,"bufferView":3},{"type":"VEC3","componentType":5126,"count":110,"normalized":false,"byteOffset":43584,"bufferView":3},{"type":"VEC4","componentType":5122,"count":109,"normalized":true,"byteOffset":14392,"bufferView":2},{"type":"VEC3","componentType":5126,"count":100,"normalized":false,"byteOffset":44904,"bufferView":3},{"type":"VEC3","componentType":5126,"count":110,"normalized":false,"byteOffset":46104,"bufferView":3},{"type":"SCALAR","componentType":5126,"count":108,"max":[4],"min":[0],"normalized":false,"byteOffset":5864,"bufferView":1},{"type":"VEC4","componentType":5122,"count":108,"normalized":true,"byteOffset":15264,"bufferView":2},{"type":"VEC3","componentType":5126,"count":100,"normalized":false,"byteOffset":47424,"bufferView":3},{"type":"VEC3","componentType":5126,"count":110,"normalized":false,"byteOffset":48624,"bufferView":3},{"type":"VEC4","componentType":5122,"count":108,"normalized":true,"byteOffset":16128,"bufferView":2},{"type":"VEC3","componentType":5126,"count":100,"normalized":false,"byteOffset":49944,"bufferView":3},{"type":"VEC3","componentType":5126,"count":110,"normalized":false,"byteOffset":51144,"bufferView":3},{"type":"VEC4","componentType":5122,"count":108,"normalized":true,"byteOffset":16992,"bufferView":2},{"type":"VEC3","componentType":5126,"count":100,"normalized":false,"byteOffset":52464,"bufferView":3},{"type":"VEC3","componentType":5126,"count":110,"normalized":false,"byteOffset":53664,"bufferView":3},{"type":"VEC4","componentType":5122,"count":108,"normalized":true,"byteOffset":17856,"bufferView":2},{"type":"VEC3","componentType":5126,"count":100,"normalized":false,"byteOffset":54984,"bufferView":3},{"type":"SCALAR","componentType":5123,"count":4920,"normalized":false,"byteOffset":0,"bufferView":4},{"type":"VEC3","componentType":5120,"count":905,"normalized":true,"byteOffset":0,"bufferView":5},{"type":"SCALAR","componentType":5123,"count":240,"normalized":false,"byteOffset":9840,"bufferView":4},{"type":"VEC3","componentType":5120,"count":86,"normalized":true,"byteOffset":0,"bufferView":6},{"type":"SCALAR","componentType":5123,"count":240,"normalized":false,"byteOffset":10320,"bufferView":4},{"type":"VEC3","componentType":5120,"count":61,"normalized":true,"byteOffset":0,"bufferView":7},{"type":"SCALAR","componentType":5123,"count":60,"normalized":false,"byteOffset":10800,"bufferView":4},{"type":"VEC3","componentType":5120,"count":26,"normalized":true,"byteOffset":0,"bufferView":8},{"type":"SCALAR","componentType":5123,"count":2160,"normalized":false,"byteOffset":10920,"bufferView":4},{"type":"VEC3","componentType":5120,"count":383,"normalized":true,"byteOffset":0,"bufferView":9},{"type":"SCALAR","componentType":5123,"count":6,"normalized":false,"byteOffset":15240,"bufferView":4},{"type":"VEC3","componentType":5120,"count":6,"normalized":true,"byteOffset":0,"bufferView":10},{"type":"SCALAR","componentType":5123,"count":240,"normalized":false,"byteOffset":15252,"bufferView":4},{"type":"VEC3","componentType":5120,"count":53,"normalized":true,"byteOffset":0,"bufferView":11},{"type":"VEC3","componentType":5122,"count":905,"max":[437,32767,-6626],"min":[-437,-32767,-7500],"normalized":true,"byteOffset":0,"bufferView":12},{"type":"VEC2","componentType":5123,"count":905,"normalized":true,"byteOffset":0,"bufferView":13},{"type":"VEC3","componentType":5122,"count":905,"max":[0,0,7282],"min":[0,0,0],"normalized":true,"byteOffset":0,"bufferView":14},{"type":"VEC3","componentType":5120,"count":905,"normalized":true,"byteOffset":0,"bufferView":15},{"type":"VEC3","componentType":5122,"count":86,"max":[4096,32767,4096],"min":[-4096,-32767,-4096],"normalized":true,"byteOffset":0,"bufferView":16},{"type":"VEC3","componentType":5122,"count":61,"max":[32767,32767,32767],"min":[-32767,-32767,-32767],"normalized":true,"byteOffset":0,"bufferView":17},{"type":"VEC2","componentType":5123,"count":61,"normalized":true,"byteOffset":0,"bufferView":18},{"type":"VEC3","componentType":5122,"count":26,"max":[41,32767,39],"min":[-41,-32767,-39],"normalized":true,"byteOffset":0,"bufferView":19},{"type":"VEC3","componentType":5122,"count":383,"max":[32767,32767,32767],"min":[-32767,-32767,-32767],"normalized":true,"byteOffset":0,"bufferView":20},{"type":"VEC3","componentType":5122,"count":6,"max":[23105,32767,3361],"min":[-23105,-32767,-3361],"normalized":true,"byteOffset":0,"bufferView":21},{"type":"VEC3","componentType":5122,"count":53,"max":[32767,32767,32767],"min":[-32767,-32767,-32767],"normalized":true,"byteOffset":0,"bufferView":22},{"type":"SCALAR","componentType":5126,"count":28,"max":[2.4000000953674316],"min":[0],"bufferView":0,"byteOffset":0},{"type":"SCALAR","componentType":5126,"count":28,"bufferView":0,"byteOffset":112},{"type":"SCALAR","componentType":5126,"count":2,"max":[4],"min":[0],"bufferView":0,"byteOffset":224},{"type":"SCALAR","componentType":5126,"count":2,"bufferView":0,"byteOffset":232},{"type":"SCALAR","componentType":5126,"count":49,"max":[4],"min":[0],"bufferView":0,"byteOffset":240},{"type":"SCALAR","componentType":5126,"count":49,"bufferView":0,"byteOffset":436}],"bufferViews":[{"buffer":0,"byteOffset":0,"byteLength":632},{"buffer":1,"byteOffset":0,"byteLength":6296,"extensions":{"EXT_meshopt_compression":{"buffer":0,"byteOffset":632,"byteLength":4792,"mode":"ATTRIBUTES","byteStride":4,"count":1574}}},{"buffer":1,"byteOffset":6296,"byteLength":18720,"extensions":{"EXT_meshopt_compression":{"buffer":0,"byteOffset":5424,"byteLength":7476,"mode":"ATTRIBUTES","filter":"QUATERNION","byteStride":8,"count":2340}}},{"buffer":1,"byteOffset":25016,"byteLength":56184,"extensions":{"EXT_meshopt_compression":{"buffer":0,"byteOffset":12900,"byteLength":9979,"mode":"ATTRIBUTES","filter":"EXPONENTIAL","byteStride":12,"count":4682}}},{"buffer":1,"byteOffset":81200,"byteLength":15732,"target":34963,"extensions":{"EXT_meshopt_compression":{"buffer":0,"byteOffset":22880,"byteLength":2829,"mode":"TRIANGLES","byteStride":2,"count":7866}}},{"buffer":1,"byteOffset":96932,"byteLength":3620,"target":34962,"byteStride":4,"extensions":{"EXT_meshopt_compression":{"buffer":0,"byteOffset":25712,"byteLength":687,"mode":"ATTRIBUTES","filter":"OCTAHEDRAL","byteStride":4,"count":905}}},{"buffer":1,"byteOffset":100552,"byteLength":344,"target":34962,"byteStride":4,"extensions":{"EXT_meshopt_compression":{"buffer":0,"byteOffset":26400,"byteLength":92,"mode":"ATTRIBUTES","filter":"OCTAHEDRAL","byteStride":4,"count":86}}},{"buffer":1,"byteOffset":100896,"byteLength":244,"target":34962,"byteStride":4,"extensions":{"EXT_meshopt_compression":{"buffer":0,"byteOffset":26492,"byteLength":159,"mode":"ATTRIBUTES","filter":"OCTAHEDRAL","byteStride":4,"count":61}}},{"buffer":1,"byteOffset":101140,"byteLength":104,"target":34962,"byteStride":4,"extensions":{"EXT_meshopt_compression":{"buffer":0,"byteOffset":26652,"byteLength":58,"mode":"ATTRIBUTES","filter":"OCTAHEDRAL","byteStride":4,"count":26}}},{"buffer":1,"byteOffset":101244,"byteLength":1532,"target":34962,"byteStride":4,"extensions":{"EXT_meshopt_compression":{"buffer":0,"byteOffset":26712,"byteLength":785,"mode":"ATTRIBUTES","filter":"OCTAHEDRAL","byteStride":4,"count":383}}},{"buffer":1,"byteOffset":102776,"byteLength":24,"target":34962,"byteStride":4,"extensions":{"EXT_meshopt_compression":{"buffer":0,"byteOffset":27500,"byteLength":47,"mode":"ATTRIBUTES","filter":"OCTAHEDRAL","byteStride":4,"count":6}}},{"buffer":1,"byteOffset":102800,"byteLength":212,"target":34962,"byteStride":4,"extensions":{"EXT_meshopt_compression":{"buffer":0,"byteOffset":27548,"byteLength":150,"mode":"ATTRIBUTES","filter":"OCTAHEDRAL","byteStride":4,"count":53}}},{"buffer":1,"byteOffset":103012,"byteLength":7240,"target":34962,"byteStride":8,"extensions":{"EXT_meshopt_compression":{"buffer":0,"byteOffset":27700,"byteLength":3103,"mode":"ATTRIBUTES","byteStride":8,"count":905}}},{"buffer":1,"byteOffset":110252,"byteLength":3620,"target":34962,"byteStride":4,"extensions":{"EXT_meshopt_compression":{"buffer":0,"byteOffset":30804,"byteLength":2357,"mode":"ATTRIBUTES","byteStride":4,"count":905}}},{"buffer":1,"byteOffset":113872,"byteLength":7240,"target":34962,"byteStride":8,"extensions":{"EXT_meshopt_compression":{"buffer":0,"byteOffset":33164,"byteLength":1095,"mode":"ATTRIBUTES","byteStride":8,"count":905}}},{"buffer":1,"byteOffset":121112,"byteLength":3620,"target":34962,"byteStride":4,"extensions":{"EXT_meshopt_compression":{"buffer":0,"byteOffset":34260,"byteLength":904,"mode":"ATTRIBUTES","byteStride":4,"count":905}}},{"buffer":1,"byteOffset":124732,"byteLength":688,"target":34962,"byteStride":8,"extensions":{"EXT_meshopt_compression":{"buffer":0,"byteOffset":35164,"byteLength":354,"mode":"ATTRIBUTES","byteStride":8,"count":86}}},{"buffer":1,"byteOffset":125420,"byteLength":488,"target":34962,"byteStride":8,"extensions":{"EXT_meshopt_compression":{"buffer":0,"byteOffset":35520,"byteLength":389,"mode":"ATTRIBUTES","byteStride":8,"count":61}}},{"buffer":1,"byteOffset":125908,"byteLength":244,"target":34962,"byteStride":4,"extensions":{"EXT_meshopt_compression":{"buffer":0,"byteOffset":35912,"byteLength":240,"mode":"ATTRIBUTES","byteStride":4,"count":61}}},{"buffer":1,"byteOffset":126152,"byteLength":208,"target":34962,"byteStride":8,"extensions":{"EXT_meshopt_compression":{"buffer":0,"byteOffset":36152,"byteLength":126,"mode":"ATTRIBUTES","byteStride":8,"count":26}}},{"buffer":1,"byteOffset":126360,"byteLength":3064,"target":34962,"byteStride":8,"extensions":{"EXT_meshopt_compression":{"buffer":0,"byteOffset":36280,"byteLength":2286,"mode":"ATTRIBUTES","byteStride":8,"count":383}}},{"buffer":1,"byteOffset":129424,"byteLength":48,"target":34962,"byteStride":8,"extensions":{"EXT_meshopt_compression":{"buffer":0,"byteOffset":38568,"byteLength":87,"mode":"ATTRIBUTES","byteStride":8,"count":6}}},{"buffer":1,"byteOffset":129472,"byteLength":424,"target":34962,"byteStride":8,"extensions":{"EXT_meshopt_compression":{"buffer":0,"byteOffset":38656,"byteLength":356,"mode":"ATTRIBUTES","byteStride":8,"count":53}}}],"samplers":[{"wrapS":10497,"wrapT":10497}],"textures":[{"source":0,"sampler":0},{"source":1,"sampler":0},{"source":2,"sampler":0}],"images":[{"name":"wood_albedo","mimeType":"image/png","uri":"../textures/cc1076af92e734b02c5d.png"},{"name":"wood_normal","mimeType":"image/png","uri":"../textures/95a7d373f8dd63af7d15.png"},{"name":"wood_roughness","mimeType":"image/png","uri":"../textures/24356be8f8e9686740a4.png"}],"buffers":[{"uri":"prop-fishing_rod.bin","byteLength":39012},{"byteLength":129896,"extensions":{"EXT_meshopt_compression":{"fallback":true}}}],"materials":[{"name":"tool_wood","pbrMetallicRoughness":{"baseColorFactor":[0.24620132669705552,0.10702310296918527,0.035601314869097636,1],"roughnessFactor":0.85,"metallicFactor":0,"baseColorTexture":{"index":0},"metallicRoughnessTexture":{"index":2}},"normalTexture":{"index":1,"scale":0.35}},{"pbrMetallicRoughness":{"baseColorFactor":[0.4452011945063733,0.3049873140591091,0.15592646369776456,1],"roughnessFactor":0.96,"metallicFactor":0}},{"pbrMetallicRoughness":{"baseColorFactor":[0.4396571738310091,0.3915724777393922,0.2917706498067337,1],"roughnessFactor":0.9,"metallicFactor":0}},{"doubleSided":true,"pbrMetallicRoughness":{"baseColorFactor":[0.4178850708380236,0.4735314961384573,0.37626212298046485,1],"roughnessFactor":0.49,"metallicFactor":0.08}},{"pbrMetallicRoughness":{"baseColorFactor":[0.014443843592229466,0.02217388478862708,0.018500220124016652,1],"roughnessFactor":0.4,"metallicFactor":0}}],"meshes":[{"extras":{"targetNames":["0"]},"primitives":[{"attributes":{"NORMAL":155,"POSITION":168,"TEXCOORD_0":169},"mode":4,"material":0,"indices":154,"targets":[{"POSITION":170,"NORMAL":171}]}],"weights":[0.035]},{"primitives":[{"attributes":{"NORMAL":157,"POSITION":172},"mode":4,"material":1,"indices":156}]},{"primitives":[{"attributes":{"NORMAL":159,"POSITION":173,"TEXCOORD_0":174},"mode":4,"material":0,"indices":158}]},{"primitives":[{"attributes":{"NORMAL":161,"POSITION":175},"mode":4,"material":2,"indices":160}]},{"primitives":[{"attributes":{"NORMAL":163,"POSITION":176},"mode":4,"material":3,"indices":162}]},{"primitives":[{"attributes":{"NORMAL":165,"POSITION":177},"mode":4,"material":3,"indices":164}]},{"primitives":[{"attributes":{"NORMAL":167,"POSITION":178},"mode":4,"material":4,"indices":166}]}],"nodes":[{"name":"fishing_rod","children":[1,2,3,4,5,6,7,8,9,10,11,12,13,14,15,16]},{"name":"fishing_pole","translation":[0,0.5500000044703484,0.14550002105534077],"scale":[0.6750000193715096,0.6750000193715096,0.6750000193715096],"mesh":0},{"name":"pole_wrapped_grip","translation":[0,0.035,0],"scale":[0.11999999731779099,0.11999999731779099,0.11999999731779099],"mesh":1},{"name":"pole_tip_knot","translation":[0,1.225,0.00525],"children":[21]},{"name":"fishing_line_0","translation":[0.0008333333333333333,1.202440707130246,0.06190413514932705],"rotation":[0.8275301500424807,0,-0.012172252855878717,0.5612893077826107],"scale":[1,0.12197224551095216,1],"children":[22]},{"name":"fishing_line_1","translation":[0.0024999999999999996,1.157450368625771,0.17503306674738525],"rotation":[0.8272856132103628,0,-0.012207298140528143,0.5616489081688509],"scale":[1,0.1215442123120142,1],"children":[23]},{"name":"fishing_line_2","translation":[0.004166666666666667,1.1128360319892683,0.28763620387973077],"rotation":[0.8268078404769924,0,-0.01227555501087477,0.5623505185157628],"scale":[1,0.12071757903487057,1],"children":[24]},{"name":"fishing_line_3","translation":[0.005833333333333333,1.0688198279477472,0.3994029228051684],"rotation":[0.8261198406480653,0,-0.012373351314229317,0.5633585972228258],"scale":[1,0.11954914754401998,1],"children":[25]},{"name":"fishing_line_4","translation":[0.0075,1.0255831254803298,0.5100796003010577],"rotation":[0.8252569337071202,0,-0.012495191907148139,0.5646192199593681],"scale":[1,0.11811910990333344,1],"children":[26]},{"name":"fishing_line_5","translation":[0.009166666666666667,0.9832541718220495,0.6194868976668029],"rotation":[0.8242671329194159,0,-0.012633840999275133,0.5660601378390915],"scale":[1,0.11652544611697302,1],"children":[27]},{"name":"fishing_line_6","translation":[0.010833333333333334,0.9418993526267235,0.7275319823599273],"rotation":[0.8232107108107377,0,-0.012780531692352463,0.5675920926300337],"scale":[1,0.11487710854858635,1],"children":[28]},{"name":"fishing_line_7","translation":[0.0125,0.9015186678943519,0.8342148543804314],"rotation":[0.8221582696122737,0,-0.012925362020514272,0.5691122162849702],"scale":[1,0.11328649232483855,1],"children":[29]},{"name":"fishing_line_8","translation":[0.014166666666666666,0.8620457319711174,0.9396283462707915],"rotation":[0.8211867405791874,0,-0.013057914342544967,0.5705101471226895],"scale":[1,0.11186173868601976,1],"children":[30]},{"name":"fishing_line_9","translation":[0.01583333333333333,0.8233522976219865,1.0439517967316028],"rotation":[0.8203731161055471,0,-0.013168088185500585,0.5716769645742371],"scale":[1,0.11069941727523792,1],"children":[31]},{"name":"fishing_line_10","translation":[0.0175,0.785256995867837,1.1474388289855064],"rotation":[0.8197863768412703,0,-0.013247071856509618,0.5725162106287398],"scale":[1,0.10987808297977035,1],"children":[32]},{"name":"fishing_line_11","translation":[0.019166666666666665,0.7475376959816604,1.2504000667736974],"rotation":[0.81947885515907,0,-0.013288313448730795,0.5729553443968111],"scale":[1,0.1094531123232747,1],"children":[33]},{"name":"caught_fish","translation":[0.02,0.7287421696560891,1.301791016317495],"rotation":[-0.45733844717895555,0,0,0.8892927216231684],"scale":[0,0,0],"children":[17,18,19,20]},{"translation":[0,-0.04,0],"scale":[0.022,0.045,0.013],"mesh":4},{"translation":[0.006500001065433025,-0.06900000106543303,0],"scale":[0.03900000173598528,0.03900000173598528,0.03900000173598528],"mesh":5},{"translation":[-0.014,-0.014,0.002],"scale":[0.0024999999441206455,0.0024999999441206455,0.0024999999441206455],"mesh":6},{"translation":[0.014,-0.014,0.002],"scale":[0.0024999999441206455,0.0024999999441206455,0.0024999999441206455],"mesh":6},{"scale":[0.0035000001080334187,0.0035000001080334187,0.0035000001080334187],"mesh":2},{"translation":[0,0,0.00006206947728060186],"scale":[0.5,0.5,0.5],"mesh":3},{"translation":[0,0,0.00006206947728060186],"scale":[0.5,0.5,0.5],"mesh":3},{"translation":[0,0,0.00006206947728060186],"scale":[0.5,0.5,0.5],"mesh":3},{"translation":[0,0,0.00006206947728060186],"scale":[0.5,0.5,0.5],"mesh":3},{"translation":[0,0,0.00006206947728060186],"scale":[0.5,0.5,0.5],"mesh":3},{"translation":[0,0,0.00006206947728060186],"scale":[0.5,0.5,0.5],"mesh":3},{"translation":[0,0,0.00006206947728060186],"scale":[0.5,0.5,0.5],"mesh":3},{"translation":[0,0,0.00006206947728060186],"scale":[0.5,0.5,0.5],"mesh":3},{"translation":[0,0,0.00006206947728060186],"scale":[0.5,0.5,0.5],"mesh":3},{"translation":[0,0,0.00006206947728060186],"scale":[0.5,0.5,0.5],"mesh":3},{"translation":[0,0,0.00006206947728060186],"scale":[0.5,0.5,0.5],"mesh":3},{"translation":[0,0,0.00006206947728060186],"scale":[0.5,0.5,0.5],"mesh":3}],"animations":[{"name":"fish_cast","samplers":[{"input":179,"output":180,"interpolation":"LINEAR"},{"input":179,"output":5,"interpolation":"LINEAR"},{"input":6,"output":7,"interpolation":"LINEAR"},{"input":6,"output":8,"interpolation":"LINEAR"},{"input":9,"output":10,"interpolation":"LINEAR"},{"input":0,"output":1,"interpolation":"LINEAR"},{"input":6,"output":11,"interpolation":"LINEAR"},{"input":9,"output":12,"interpolation":"LINEAR"},{"input":13,"output":14,"interpolation":"LINEAR"},{"input":15,"output":16,"interpolation":"LINEAR"},{"input":9,"output":17,"interpolation":"LINEAR"},{"input":13,"output":18,"interpolation":"LINEAR"},{"input":15,"output":19,"interpolation":"LINEAR"},{"input":9,"output":20,"interpolation":"LINEAR"},{"input":13,"output":21,"interpolation":"LINEAR"},{"input":15,"output":22,"interpolation":"LINEAR"},{"input":9,"output":23,"interpolation":"LINEAR"},{"input":13,"output":24,"interpolation":"LINEAR"},{"input":15,"output":25,"interpolation":"LINEAR"},{"input":9,"output":26,"interpolation":"LINEAR"},{"input":13,"output":27,"interpolation":"LINEAR"},{"input":15,"output":28,"interpolation":"LINEAR"},{"input":9,"output":29,"interpolation":"LINEAR"},{"input":13,"output":30,"interpolation":"LINEAR"},{"input":15,"output":31,"interpolation":"LINEAR"},{"input":9,"output":32,"interpolation":"LINEAR"},{"input":13,"output":33,"interpolation":"LINEAR"},{"input":15,"output":34,"interpolation":"LINEAR"},{"input":9,"output":35,"interpolation":"LINEAR"},{"input":13,"output":36,"interpolation":"LINEAR"},{"input":15,"output":37,"interpolation":"LINEAR"},{"input":9,"output":38,"interpolation":"LINEAR"},{"input":13,"output":39,"interpolation":"LINEAR"},{"input":15,"output":40,"interpolation":"LINEAR"},{"input":9,"output":41,"interpolation":"LINEAR"},{"input":13,"output":42,"interpolation":"LINEAR"},{"input":15,"output":43,"interpolation":"LINEAR"},{"input":9,"output":44,"interpolation":"LINEAR"},{"input":13,"output":45,"interpolation":"LINEAR"},{"input":15,"output":46,"interpolation":"LINEAR"},{"input":9,"output":47,"interpolation":"LINEAR"},{"input":13,"output":48,"interpolation":"LINEAR"},{"input":15,"output":49,"interpolation":"LINEAR"}],"channels":[{"sampler":0,"target":{"node":1,"path":"weights"}},{"sampler":1,"target":{"node":3,"path":"translation"}},{"sampler":2,"target":{"node":3,"path":"rotation"}},{"sampler":3,"target":{"node":3,"path":"scale"}},{"sampler":4,"target":{"node":16,"path":"translation"}},{"sampler":5,"target":{"node":16,"path":"rotation"}},{"sampler":6,"target":{"node":16,"path":"scale"}},{"sampler":7,"target":{"node":4,"path":"translation"}},{"sampler":8,"target":{"node":4,"path":"rotation"}},{"sampler":9,"target":{"node":4,"path":"scale"}},{"sampler":10,"target":{"node":5,"path":"translation"}},{"sampler":11,"target":{"node":5,"path":"rotation"}},{"sampler":12,"target":{"node":5,"path":"scale"}},{"sampler":13,"target":{"node":6,"path":"translation"}},{"sampler":14,"target":{"node":6,"path":"rotation"}},{"sampler":15,"target":{"node":6,"path":"scale"}},{"sampler":16,"target":{"node":7,"path":"translation"}},{"sampler":17,"target":{"node":7,"path":"rotation"}},{"sampler":18,"target":{"node":7,"path":"scale"}},{"sampler":19,"target":{"node":8,"path":"translation"}},{"sampler":20,"target":{"node":8,"path":"rotation"}},{"sampler":21,"target":{"node":8,"path":"scale"}},{"sampler":22,"target":{"node":9,"path":"translation"}},{"sampler":23,"target":{"node":9,"path":"rotation"}},{"sampler":24,"target":{"node":9,"path":"scale"}},{"sampler":25,"target":{"node":10,"path":"translation"}},{"sampler":26,"target":{"node":10,"path":"rotation"}},{"sampler":27,"target":{"node":10,"path":"scale"}},{"sampler":28,"target":{"node":11,"path":"translation"}},{"sampler":29,"target":{"node":11,"path":"rotation"}},{"sampler":30,"target":{"node":11,"path":"scale"}},{"sampler":31,"target":{"node":12,"path":"translation"}},{"sampler":32,"target":{"node":12,"path":"rotation"}},{"sampler":33,"target":{"node":12,"path":"scale"}},{"sampler":34,"target":{"node":13,"path":"translation"}},{"sampler":35,"target":{"node":13,"path":"rotation"}},{"sampler":36,"target":{"node":13,"path":"scale"}},{"sampler":37,"target":{"node":14,"path":"translation"}},{"sampler":38,"target":{"node":14,"path":"rotation"}},{"sampler":39,"target":{"node":14,"path":"scale"}},{"sampler":40,"target":{"node":15,"path":"translation"}},{"sampler":41,"target":{"node":15,"path":"rotation"}},{"sampler":42,"target":{"node":15,"path":"scale"}}]},{"name":"fish_wait","samplers":[{"input":181,"output":182,"interpolation":"LINEAR"},{"input":181,"output":50,"interpolation":"LINEAR"},{"input":181,"output":7,"interpolation":"LINEAR"},{"input":181,"output":8,"interpolation":"LINEAR"},{"input":51,"output":52,"interpolation":"LINEAR"},{"input":2,"output":3,"interpolation":"LINEAR"},{"input":181,"output":11,"interpolation":"LINEAR"},{"input":53,"output":54,"interpolation":"LINEAR"},{"input":55,"output":56,"interpolation":"LINEAR"},{"input":57,"output":58,"interpolation":"LINEAR"},{"input":59,"output":60,"interpolation":"LINEAR"},{"input":55,"output":61,"interpolation":"LINEAR"},{"input":57,"output":62,"interpolation":"LINEAR"},{"input":63,"output":64,"interpolation":"LINEAR"},{"input":55,"output":65,"interpolation":"LINEAR"},{"input":57,"output":66,"interpolation":"LINEAR"},{"input":67,"output":68,"interpolation":"LINEAR"},{"input":55,"output":69,"interpolation":"LINEAR"},{"input":57,"output":70,"interpolation":"LINEAR"},{"input":71,"output":72,"interpolation":"LINEAR"},{"input":73,"output":74,"interpolation":"LINEAR"},{"input":57,"output":75,"interpolation":"LINEAR"},{"input":76,"output":77,"interpolation":"LINEAR"},{"input":78,"output":79,"interpolation":"LINEAR"},{"input":57,"output":80,"interpolation":"LINEAR"},{"input":81,"output":82,"interpolation":"LINEAR"},{"input":83,"output":84,"interpolation":"LINEAR"},{"input":57,"output":85,"interpolation":"LINEAR"},{"input":86,"output":87,"interpolation":"LINEAR"},{"input":83,"output":88,"interpolation":"LINEAR"},{"input":57,"output":89,"interpolation":"LINEAR"},{"input":90,"output":91,"interpolation":"LINEAR"},{"input":92,"output":93,"interpolation":"LINEAR"},{"input":57,"output":94,"interpolation":"LINEAR"},{"input":95,"output":96,"interpolation":"LINEAR"},{"input":92,"output":97,"interpolation":"LINEAR"},{"input":57,"output":98,"interpolation":"LINEAR"},{"input":99,"output":100,"interpolation":"LINEAR"},{"input":101,"output":102,"interpolation":"LINEAR"},{"input":57,"output":103,"interpolation":"LINEAR"},{"input":104,"output":105,"interpolation":"LINEAR"},{"input":106,"output":107,"interpolation":"LINEAR"},{"input":57,"output":108,"interpolation":"LINEAR"}],"channels":[{"sampler":0,"target":{"node":1,"path":"weights"}},{"sampler":1,"target":{"node":3,"path":"translation"}},{"sampler":2,"target":{"node":3,"path":"rotation"}},{"sampler":3,"target":{"node":3,"path":"scale"}},{"sampler":4,"target":{"node":16,"path":"translation"}},{"sampler":5,"target":{"node":16,"path":"rotation"}},{"sampler":6,"target":{"node":16,"path":"scale"}},{"sampler":7,"target":{"node":4,"path":"translation"}},{"sampler":8,"target":{"node":4,"path":"rotation"}},{"sampler":9,"target":{"node":4,"path":"scale"}},{"sampler":10,"target":{"node":5,"path":"translation"}},{"sampler":11,"target":{"node":5,"path":"rotation"}},{"sampler":12,"target":{"node":5,"path":"scale"}},{"sampler":13,"target":{"node":6,"path":"translation"}},{"sampler":14,"target":{"node":6,"path":"rotation"}},{"sampler":15,"target":{"node":6,"path":"scale"}},{"sampler":16,"target":{"node":7,"path":"translation"}},{"sampler":17,"target":{"node":7,"path":"rotation"}},{"sampler":18,"target":{"node":7,"path":"scale"}},{"sampler":19,"target":{"node":8,"path":"translation"}},{"sampler":20,"target":{"node":8,"path":"rotation"}},{"sampler":21,"target":{"node":8,"path":"scale"}},{"sampler":22,"target":{"node":9,"path":"translation"}},{"sampler":23,"target":{"node":9,"path":"rotation"}},{"sampler":24,"target":{"node":9,"path":"scale"}},{"sampler":25,"target":{"node":10,"path":"translation"}},{"sampler":26,"target":{"node":10,"path":"rotation"}},{"sampler":27,"target":{"node":10,"path":"scale"}},{"sampler":28,"target":{"node":11,"path":"translation"}},{"sampler":29,"target":{"node":11,"path":"rotation"}},{"sampler":30,"target":{"node":11,"path":"scale"}},{"sampler":31,"target":{"node":12,"path":"translation"}},{"sampler":32,"target":{"node":12,"path":"rotation"}},{"sampler":33,"target":{"node":12,"path":"scale"}},{"sampler":34,"target":{"node":13,"path":"translation"}},{"sampler":35,"target":{"node":13,"path":"rotation"}},{"sampler":36,"target":{"node":13,"path":"scale"}},{"sampler":37,"target":{"node":14,"path":"translation"}},{"sampler":38,"target":{"node":14,"path":"rotation"}},{"sampler":39,"target":{"node":14,"path":"scale"}},{"sampler":40,"target":{"node":15,"path":"translation"}},{"sampler":41,"target":{"node":15,"path":"rotation"}},{"sampler":42,"target":{"node":15,"path":"scale"}}]},{"name":"fish_reel","samplers":[{"input":183,"output":184,"interpolation":"LINEAR"},{"input":183,"output":109,"interpolation":"LINEAR"},{"input":181,"output":7,"interpolation":"LINEAR"},{"input":181,"output":8,"interpolation":"LINEAR"},{"input":110,"output":111,"interpolation":"LINEAR"},{"input":2,"output":4,"interpolation":"LINEAR"},{"input":112,"output":113,"interpolation":"LINEAR"},{"input":114,"output":115,"interpolation":"LINEAR"},{"input":116,"output":117,"interpolation":"LINEAR"},{"input":118,"output":119,"interpolation":"LINEAR"},{"input":110,"output":120,"interpolation":"LINEAR"},{"input":116,"output":121,"interpolation":"LINEAR"},{"input":118,"output":122,"interpolation":"LINEAR"},{"input":110,"output":123,"interpolation":"LINEAR"},{"input":116,"output":124,"interpolation":"LINEAR"},{"input":118,"output":125,"interpolation":"LINEAR"},{"input":110,"output":126,"interpolation":"LINEAR"},{"input":116,"output":127,"interpolation":"LINEAR"},{"input":118,"output":128,"interpolation":"LINEAR"},{"input":110,"output":129,"interpolation":"LINEAR"},{"input":116,"output":130,"interpolation":"LINEAR"},{"input":118,"output":131,"interpolation":"LINEAR"},{"input":110,"output":132,"interpolation":"LINEAR"},{"input":116,"output":133,"interpolation":"LINEAR"},{"input":118,"output":134,"interpolation":"LINEAR"},{"input":110,"output":135,"interpolation":"LINEAR"},{"input":116,"output":136,"interpolation":"LINEAR"},{"input":118,"output":137,"interpolation":"LINEAR"},{"input":110,"output":138,"interpolation":"LINEAR"},{"input":116,"output":139,"interpolation":"LINEAR"},{"input":118,"output":140,"interpolation":"LINEAR"},{"input":110,"output":141,"interpolation":"LINEAR"},{"input":142,"output":143,"interpolation":"LINEAR"},{"input":118,"output":144,"interpolation":"LINEAR"},{"input":110,"output":145,"interpolation":"LINEAR"},{"input":142,"output":146,"interpolation":"LINEAR"},{"input":118,"output":147,"interpolation":"LINEAR"},{"input":110,"output":148,"interpolation":"LINEAR"},{"input":142,"output":149,"interpolation":"LINEAR"},{"input":118,"output":150,"interpolation":"LINEAR"},{"input":110,"output":151,"interpolation":"LINEAR"},{"input":142,"output":152,"interpolation":"LINEAR"},{"input":118,"output":153,"interpolation":"LINEAR"}],"channels":[{"sampler":0,"target":{"node":1,"path":"weights"}},{"sampler":1,"target":{"node":3,"path":"translation"}},{"sampler":2,"target":{"node":3,"path":"rotation"}},{"sampler":3,"target":{"node":3,"path":"scale"}},{"sampler":4,"target":{"node":16,"path":"translation"}},{"sampler":5,"target":{"node":16,"path":"rotation"}},{"sampler":6,"target":{"node":16,"path":"scale"}},{"sampler":7,"target":{"node":4,"path":"translation"}},{"sampler":8,"target":{"node":4,"path":"rotation"}},{"sampler":9,"target":{"node":4,"path":"scale"}},{"sampler":10,"target":{"node":5,"path":"translation"}},{"sampler":11,"target":{"node":5,"path":"rotation"}},{"sampler":12,"target":{"node":5,"path":"scale"}},{"sampler":13,"target":{"node":6,"path":"translation"}},{"sampler":14,"target":{"node":6,"path":"rotation"}},{"sampler":15,"target":{"node":6,"path":"scale"}},{"sampler":16,"target":{"node":7,"path":"translation"}},{"sampler":17,"target":{"node":7,"path":"rotation"}},{"sampler":18,"target":{"node":7,"path":"scale"}},{"sampler":19,"target":{"node":8,"path":"translation"}},{"sampler":20,"target":{"node":8,"path":"rotation"}},{"sampler":21,"target":{"node":8,"path":"scale"}},{"sampler":22,"target":{"node":9,"path":"translation"}},{"sampler":23,"target":{"node":9,"path":"rotation"}},{"sampler":24,"target":{"node":9,"path":"scale"}},{"sampler":25,"target":{"node":10,"path":"translation"}},{"sampler":26,"target":{"node":10,"path":"rotation"}},{"sampler":27,"target":{"node":10,"path":"scale"}},{"sampler":28,"target":{"node":11,"path":"translation"}},{"sampler":29,"target":{"node":11,"path":"rotation"}},{"sampler":30,"target":{"node":11,"path":"scale"}},{"sampler":31,"target":{"node":12,"path":"translation"}},{"sampler":32,"target":{"node":12,"path":"rotation"}},{"sampler":33,"target":{"node":12,"path":"scale"}},{"sampler":34,"target":{"node":13,"path":"translation"}},{"sampler":35,"target":{"node":13,"path":"rotation"}},{"sampler":36,"target":{"node":13,"path":"scale"}},{"sampler":37,"target":{"node":14,"path":"translation"}},{"sampler":38,"target":{"node":14,"path":"rotation"}},{"sampler":39,"target":{"node":14,"path":"scale"}},{"sampler":40,"target":{"node":15,"path":"translation"}},{"sampler":41,"target":{"node":15,"path":"rotation"}},{"sampler":42,"target":{"node":15,"path":"scale"}}]}],"scenes":[{"name":"AuxScene","nodes":[0]}],"scene":0,"extensionsUsed":["EXT_meshopt_compression","KHR_mesh_quantization"],"extensionsRequired":["EXT_meshopt_compression","KHR_mesh_quantization"]}