{"asset":{"generator":"glTF-Transform v4.5.1","version":"2.0"},"accessors":[{"type":"SCALAR","componentType":5126,"count":53,"max":[6],"min":[0],"normalized":false,"byteOffset":0,"bufferView":0},{"type":"VEC3","componentType":5126,"count":53,"normalized":false,"byteOffset":0,"bufferView":1},{"type":"SCALAR","componentType":5126,"count":57,"max":[6],"min":[0],"normalized":false,"byteOffset":212,"bufferView":0},{"type":"VEC3","componentType":5126,"count":57,"normalized":false,"byteOffset":636,"bufferView":1},{"type":"SCALAR","componentType":5126,"count":2,"max":[6],"min":[0],"normalized":false,"byteOffset":440,"bufferView":0},{"type":"VEC4","componentType":5122,"count":2,"normalized":true,"byteOffset":0,"bufferView":2},{"type":"SCALAR","componentType":5126,"count":27,"max":[6],"min":[0],"normalized":false,"byteOffset":448,"bufferView":0},{"type":"VEC3","componentType":5126,"count":27,"normalized":false,"byteOffset":1320,"bufferView":1},{"type":"VEC3","componentType":5126,"count":27,"normalized":false,"byteOffset":1644,"bufferView":1},{"type":"VEC4","componentType":5122,"count":27,"normalized":true,"byteOffset":16,"bufferView":2},{"type":"VEC3","componentType":5126,"count":27,"normalized":false,"byteOffset":1968,"bufferView":1},{"type":"VEC4","componentType":5122,"count":27,"normalized":true,"byteOffset":232,"bufferView":2},{"type":"VEC3","componentType":5126,"count":27,"normalized":false,"byteOffset":2292,"bufferView":1},{"type":"SCALAR","componentType":5126,"count":5,"max":[6],"min":[0],"normalized":false,"byteOffset":556,"bufferView":0},{"type":"VEC4","componentType":5122,"count":5,"normalized":true,"byteOffset":448,"bufferView":2},{"type":"VEC3","componentType":5126,"count":27,"normalized":false,"byteOffset":2616,"bufferView":1},{"type":"VEC4","componentType":5122,"count":27,"normalized":true,"byteOffset":488,"bufferView":2},{"type":"VEC3","componentType":5126,"count":27,"normalized":false,"byteOffset":2940,"bufferView":1},{"type":"VEC4","componentType":5122,"count":27,"normalized":true,"byteOffset":704,"bufferView":2},{"type":"VEC3","componentType":5126,"count":27,"normalized":false,"byteOffset":3264,"bufferView":1},{"type":"VEC4","componentType":5122,"count":27,"normalized":true,"byteOffset":920,"bufferView":2},{"type":"VEC3","componentType":5126,"count":27,"normalized":false,"byteOffset":3588,"bufferView":1},{"type":"VEC4","componentType":5122,"count":5,"normalized":true,"byteOffset":1136,"bufferView":2},{"type":"VEC3","componentType":5126,"count":27,"normalized":false,"byteOffset":3912,"bufferView":1},{"type":"VEC4","componentType":5122,"count":27,"normalized":true,"byteOffset":1176,"bufferView":2},{"type":"SCALAR","componentType":5123,"count":3648,"normalized":false,"byteOffset":0,"bufferView":3},{"type":"VEC3","componentType":5120,"count":635,"normalized":true,"byteOffset":0,"bufferView":4},{"type":"SCALAR","componentType":5123,"count":3,"normalized":false,"byteOffset":7296,"bufferView":3},{"type":"VEC3","componentType":5120,"count":3,"normalized":true,"byteOffset":0,"bufferView":5},{"type":"VEC3","componentType":5122,"count":635,"max":[32767,32767,32767],"min":[-32767,-32767,-32767],"normalized":true,"byteOffset":0,"bufferView":6},{"type":"VEC3","componentType":5122,"count":3,"max":[32767,26214,6553],"min":[-32767,-26214,-6553],"normalized":true,"byteOffset":0,"bufferView":7}],"bufferViews":[{"buffer":1,"byteOffset":0,"byteLength":576,"extensions":{"EXT_meshopt_compression":{"buffer":0,"byteOffset":0,"byteLength":463,"mode":"ATTRIBUTES","byteStride":4,"count":144}}},{"buffer":1,"byteOffset":576,"byteLength":4236,"extensions":{"EXT_meshopt_compression":{"buffer":0,"byteOffset":464,"byteLength":1466,"mode":"ATTRIBUTES","filter":"EXPONENTIAL","byteStride":12,"count":353}}},{"buffer":1,"byteOffset":4812,"byteLength":1392,"extensions":{"EXT_meshopt_compression":{"buffer":0,"byteOffset":1932,"byteLength":896,"mode":"ATTRIBUTES","filter":"QUATERNION","byteStride":8,"count":174}}},{"buffer":1,"byteOffset":6204,"byteLength":7302,"target":34963,"extensions":{"EXT_meshopt_compression":{"buffer":0,"byteOffset":2828,"byteLength":1380,"mode":"TRIANGLES","byteStride":2,"count":3651}}},{"buffer":1,"byteOffset":13508,"byteLength":2540,"target":34962,"byteStride":4,"extensions":{"EXT_meshopt_compression":{"buffer":0,"byteOffset":4208,"byteLength":1202,"mode":"ATTRIBUTES","filter":"OCTAHEDRAL","byteStride":4,"count":635}}},{"buffer":1,"byteOffset":16048,"byteLength":12,"target":34962,"byteStride":4,"extensions":{"EXT_meshopt_compression":{"buffer":0,"byteOffset":5412,"byteLength":37,"mode":"ATTRIBUTES","filter":"OCTAHEDRAL","byteStride":4,"count":3}}},{"buffer":1,"byteOffset":16060,"byteLength":5080,"target":34962,"byteStride":8,"extensions":{"EXT_meshopt_compression":{"buffer":0,"byteOffset":5452,"byteLength":3698,"mode":"ATTRIBUTES","byteStride":8,"count":635}}},{"buffer":1,"byteOffset":21140,"byteLength":24,"target":34962,"byteStride":8,"extensions":{"EXT_meshopt_compression":{"buffer":0,"byteOffset":9152,"byteLength":72,"mode":"ATTRIBUTES","byteStride":8,"count":3}}}],"buffers":[{"uri":"prop-gum_bubble.bin","byteLength":9224},{"byteLength":21164,"extensions":{"EXT_meshopt_compression":{"fallback":true}}}],"materials":[{"pbrMetallicRoughness":{"baseColorFactor":[0.7991027380100881,0.3515325994898463,0.43415363616478553,1],"roughnessFactor":0.32,"metallicFactor":0}},{"doubleSided":true,"pbrMetallicRoughness":{"baseColorFactor":[0.6938717612856897,0.23839757380151394,0.3371636150376657,1],"roughnessFactor":0.58,"metallicFactor":0}}],"meshes":[{"primitives":[{"attributes":{"NORMAL":26,"POSITION":29},"mode":4,"material":0,"indices":25}]},{"primitives":[{"attributes":{"NORMAL":28,"POSITION":30},"mode":4,"material":1,"indices":27}]}],"nodes":[{"name":"gum_bubble","children":[1,2,3,4,5,6,7,8,9]},{"name":"gum_balloon","translation":[0,-0.002,0.038],"scale":[0,0,0],"children":[10]},{"name":"gum_scrap_0","translation":[0.027,-0.002,0.066],"scale":[0,0,0],"children":[11]},{"name":"gum_scrap_1","translation":[0.019091883092036785,0.01497056274847714,0.066],"rotation":[0.09223405030067611,0.380771609186156,0.03820459454714229,0.9192639830638455],"scale":[0,0,0],"children":[12]},{"name":"gum_scrap_2","translation":[1.6532731788489268e-18,0.022,0.066],"rotation":[0.1404804310189812,0.6930117232058353,0.14048043101898117,0.6930117232058354],"scale":[0,0,0],"children":[13]},{"name":"gum_scrap_3","translation":[-0.01909188309203678,0.014970562748477143,0.066],"rotation":[0.11309068701840212,0.8826158289643388,0.2730250703779173,0.36559144672220123],"scale":[0,0,0],"children":[14]},{"name":"gum_scrap_4","translation":[-0.027,-0.001999999999999997,0.066],"rotation":[2.384499632187786e-17,0.9210609940028851,0.3894183423086505,5.639871990625564e-17],"scale":[0,0,0],"children":[15]},{"name":"gum_scrap_5","translation":[-0.01909188309203679,-0.018970562748477138,0.066],"rotation":[-0.18346821067653823,0.810780567019335,0.4429314424796229,-0.33583630696795663],"scale":[0,0,0],"children":[16]},{"name":"gum_scrap_6","translation":[-4.95981953654678e-18,-0.026000000000000002,0.066],"rotation":[-0.3992625218835743,0.5836004100574025,0.39926252188357436,-0.5836004100574025],"scale":[0,0,0],"children":[17]},{"name":"gum_scrap_7","translation":[0.019091883092036778,-0.018970562748477145,0.066],"rotation":[-0.5951795357206604,0.29269243344765095,0.24653143574241962,-0.7066220424333032],"scale":[0,0,0],"children":[18]},{"mesh":0},{"translation":[0,0.0009999999310821295,0.0010000000474974513],"scale":[0.004999999888241291,0.004999999888241291,0.004999999888241291],"mesh":1},{"translation":[0,0.0009999999310821295,0.0010000000474974513],"scale":[0.004999999888241291,0.004999999888241291,0.004999999888241291],"mesh":1},{"translation":[0,0.0009999999310821295,0.0010000000474974513],"scale":[0.004999999888241291,0.004999999888241291,0.004999999888241291],"mesh":1},{"translation":[0,0.0009999999310821295,0.0010000000474974513],"scale":[0.004999999888241291,0.004999999888241291,0.004999999888241291],"mesh":1},{"translation":[0,0.0009999999310821295,0.0010000000474974513],"scale":[0.004999999888241291,0.004999999888241291,0.004999999888241291],"mesh":1},{"translation":[0,0.0009999999310821295,0.0010000000474974513],"scale":[0.004999999888241291,0.004999999888241291,0.004999999888241291],"mesh":1},{"translation":[0,0.0009999999310821295,0.0010000000474974513],"scale":[0.004999999888241291,0.004999999888241291,0.004999999888241291],"mesh":1},{"translation":[0,0.0009999999310821295,0.0010000000474974513],"scale":[0.004999999888241291,0.004999999888241291,0.004999999888241291],"mesh":1}],"animations":[{"name":"idle_chew_gum","samplers":[{"input":0,"output":1,"interpolation":"LINEAR"},{"input":2,"output":3,"interpolation":"LINEAR"},{"input":4,"output":5,"interpolation":"LINEAR"},{"input":6,"output":7,"interpolation":"LINEAR"},{"input":6,"output":8,"interpolation":"LINEAR"},{"input":6,"output":9,"interpolation":"LINEAR"},{"input":6,"output":10,"interpolation":"LINEAR"},{"input":6,"output":8,"interpolation":"LINEAR"},{"input":6,"output":11,"interpolation":"LINEAR"},{"input":6,"output":12,"interpolation":"LINEAR"},{"input":6,"output":8,"interpolation":"LINEAR"},{"input":13,"output":14,"interpolation":"LINEAR"},{"input":6,"output":15,"interpolation":"LINEAR"},{"input":6,"output":8,"interpolation":"LINEAR"},{"input":6,"output":16,"interpolation":"LINEAR"},{"input":6,"output":17,"interpolation":"LINEAR"},{"input":6,"output":8,"interpolation":"LINEAR"},{"input":6,"output":18,"interpolation":"LINEAR"},{"input":6,"output":19,"interpolation":"LINEAR"},{"input":6,"output":8,"interpolation":"LINEAR"},{"input":6,"output":20,"interpolation":"LINEAR"},{"input":6,"output":21,"interpolation":"LINEAR"},{"input":6,"output":8,"interpolation":"LINEAR"},{"input":13,"output":22,"interpolation":"LINEAR"},{"input":6,"output":23,"interpolation":"LINEAR"},{"input":6,"output":8,"interpolation":"LINEAR"},{"input":6,"output":24,"interpolation":"LINEAR"}],"channels":[{"sampler":0,"target":{"node":1,"path":"translation"}},{"sampler":1,"target":{"node":1,"path":"scale"}},{"sampler":2,"target":{"node":1,"path":"rotation"}},{"sampler":3,"target":{"node":2,"path":"translation"}},{"sampler":4,"target":{"node":2,"path":"scale"}},{"sampler":5,"target":{"node":2,"path":"rotation"}},{"sampler":6,"target":{"node":3,"path":"translation"}},{"sampler":7,"target":{"node":3,"path":"scale"}},{"sampler":8,"target":{"node":3,"path":"rotation"}},{"sampler":9,"target":{"node":4,"path":"translation"}},{"sampler":10,"target":{"node":4,"path":"scale"}},{"sampler":11,"target":{"node":4,"path":"rotation"}},{"sampler":12,"target":{"node":5,"path":"translation"}},{"sampler":13,"target":{"node":5,"path":"scale"}},{"sampler":14,"target":{"node":5,"path":"rotation"}},{"sampler":15,"target":{"node":6,"path":"translation"}},{"sampler":16,"target":{"node":6,"path":"scale"}},{"sampler":17,"target":{"node":6,"path":"rotation"}},{"sampler":18,"target":{"node":7,"path":"translation"}},{"sampler":19,"target":{"node":7,"path":"scale"}},{"sampler":20,"target":{"node":7,"path":"rotation"}},{"sampler":21,"target":{"node":8,"path":"translation"}},{"sampler":22,"target":{"node":8,"path":"scale"}},{"sampler":23,"target":{"node":8,"path":"rotation"}},{"sampler":24,"target":{"node":9,"path":"translation"}},{"sampler":25,"target":{"node":9,"path":"scale"}},{"sampler":26,"target":{"node":9,"path":"rotation"}}]}],"scenes":[{"name":"AuxScene","nodes":[0]}],"scene":0,"extensionsUsed":["EXT_meshopt_compression","KHR_mesh_quantization"],"extensionsRequired":["EXT_meshopt_compression","KHR_mesh_quantization"]}