{"asset":{"generator":"glTF-Transform v4.5.1","version":"2.0"},"accessors":[{"type":"SCALAR","componentType":5126,"count":109,"max":[3.5999999046325684],"min":[0],"normalized":false,"byteOffset":0,"bufferView":0},{"type":"VEC3","componentType":5126,"count":109,"normalized":false,"byteOffset":0,"bufferView":1},{"type":"VEC3","componentType":5126,"count":109,"normalized":false,"byteOffset":1308,"bufferView":1},{"type":"VEC3","componentType":5126,"count":109,"normalized":false,"byteOffset":2616,"bufferView":1},{"type":"VEC3","componentType":5126,"count":109,"normalized":false,"byteOffset":3924,"bufferView":1},{"type":"SCALAR","componentType":5126,"count":107,"max":[3.5999999046325684],"min":[0],"normalized":false,"byteOffset":436,"bufferView":0},{"type":"VEC3","componentType":5126,"count":107,"normalized":false,"byteOffset":5232,"bufferView":1},{"type":"SCALAR","componentType":5126,"count":2,"max":[3.5999999046325684],"min":[0],"normalized":false,"byteOffset":864,"bufferView":0},{"type":"VEC3","componentType":5126,"count":2,"normalized":false,"byteOffset":6516,"bufferView":1},{"type":"SCALAR","componentType":5126,"count":78,"max":[3.5999999046325684],"min":[0],"normalized":false,"byteOffset":872,"bufferView":0},{"type":"VEC3","componentType":5126,"count":78,"normalized":false,"byteOffset":6540,"bufferView":1},{"type":"SCALAR","componentType":5123,"count":2880,"normalized":false,"byteOffset":0,"bufferView":2},{"type":"VEC3","componentType":5120,"count":503,"normalized":true,"byteOffset":0,"bufferView":3},{"type":"SCALAR","componentType":5123,"count":1920,"normalized":false,"byteOffset":5760,"bufferView":2},{"type":"VEC3","componentType":5120,"count":369,"normalized":true,"byteOffset":0,"bufferView":4},{"type":"SCALAR","componentType":5123,"count":36,"normalized":false,"byteOffset":9600,"bufferView":2},{"type":"VEC3","componentType":5120,"count":24,"normalized":true,"byteOffset":0,"bufferView":5},{"type":"SCALAR","componentType":5123,"count":1080,"normalized":false,"byteOffset":9672,"bufferView":2},{"type":"VEC3","componentType":5120,"count":197,"normalized":true,"byteOffset":0,"bufferView":6},{"type":"VEC3","componentType":5122,"count":503,"max":[32767,32767,32767],"min":[-32767,-32767,-32767],"normalized":true,"byteOffset":0,"bufferView":7},{"type":"VEC3","componentType":5122,"count":369,"max":[32767,32767,1708],"min":[-32767,-32767,-1708],"normalized":true,"byteOffset":0,"bufferView":8},{"type":"VEC3","componentType":5122,"count":24,"max":[32767,2142,1008],"min":[-32767,-2142,-1008],"normalized":true,"byteOffset":0,"bufferView":9},{"type":"VEC3","componentType":5122,"count":197,"max":[32767,32767,32767],"min":[-32767,-32767,-32767],"normalized":true,"byteOffset":0,"bufferView":10}],"bufferViews":[{"buffer":1,"byteOffset":0,"byteLength":1184,"extensions":{"EXT_meshopt_compression":{"buffer":0,"byteOffset":0,"byteLength":901,"mode":"ATTRIBUTES","byteStride":4,"count":296}}},{"buffer":1,"byteOffset":1184,"byteLength":7476,"extensions":{"EXT_meshopt_compression":{"buffer":0,"byteOffset":904,"byteLength":1786,"mode":"ATTRIBUTES","filter":"EXPONENTIAL","byteStride":12,"count":623}}},{"buffer":1,"byteOffset":8660,"byteLength":11832,"target":34963,"extensions":{"EXT_meshopt_compression":{"buffer":0,"byteOffset":2692,"byteLength":2176,"mode":"TRIANGLES","byteStride":2,"count":5916}}},{"buffer":1,"byteOffset":20492,"byteLength":2012,"target":34962,"byteStride":4,"extensions":{"EXT_meshopt_compression":{"buffer":0,"byteOffset":4868,"byteLength":998,"mode":"ATTRIBUTES","filter":"OCTAHEDRAL","byteStride":4,"count":503}}},{"buffer":1,"byteOffset":22504,"byteLength":1476,"target":34962,"byteStride":4,"extensions":{"EXT_meshopt_compression":{"buffer":0,"byteOffset":5868,"byteLength":653,"mode":"ATTRIBUTES","filter":"OCTAHEDRAL","byteStride":4,"count":369}}},{"buffer":1,"byteOffset":23980,"byteLength":96,"target":34962,"byteStride":4,"extensions":{"EXT_meshopt_compression":{"buffer":0,"byteOffset":6524,"byteLength":60,"mode":"ATTRIBUTES","filter":"OCTAHEDRAL","byteStride":4,"count":24}}},{"buffer":1,"byteOffset":24076,"byteLength":788,"target":34962,"byteStride":4,"extensions":{"EXT_meshopt_compression":{"buffer":0,"byteOffset":6584,"byteLength":450,"mode":"ATTRIBUTES","filter":"OCTAHEDRAL","byteStride":4,"count":197}}},{"buffer":1,"byteOffset":24864,"byteLength":4024,"target":34962,"byteStride":8,"extensions":{"EXT_meshopt_compression":{"buffer":0,"byteOffset":7036,"byteLength":3000,"mode":"ATTRIBUTES","byteStride":8,"count":503}}},{"buffer":1,"byteOffset":28888,"byteLength":2952,"target":34962,"byteStride":8,"extensions":{"EXT_meshopt_compression":{"buffer":0,"byteOffset":10036,"byteLength":1782,"mode":"ATTRIBUTES","byteStride":8,"count":369}}},{"buffer":1,"byteOffset":31840,"byteLength":192,"target":34962,"byteStride":8,"extensions":{"EXT_meshopt_compression":{"buffer":0,"byteOffset":11820,"byteLength":147,"mode":"ATTRIBUTES","byteStride":8,"count":24}}},{"buffer":1,"byteOffset":32032,"byteLength":1576,"target":34962,"byteStride":8,"extensions":{"EXT_meshopt_compression":{"buffer":0,"byteOffset":11968,"byteLength":1239,"mode":"ATTRIBUTES","byteStride":8,"count":197}}}],"buffers":[{"uri":"prop-speech_mouth.bin","byteLength":13208},{"byteLength":33608,"extensions":{"EXT_meshopt_compression":{"fallback":true}}}],"materials":[{"pbrMetallicRoughness":{"baseColorFactor":[0.08228270712149792,0.026241221889696346,0.02217388478862708,1],"roughnessFactor":0.75,"metallicFactor":0}},{"pbrMetallicRoughness":{"baseColorFactor":[0.5209955731953768,0.25818285291079235,0.1844749944900301,1],"roughnessFactor":0.75,"metallicFactor":0}},{"pbrMetallicRoughness":{"baseColorFactor":[0.8069522576650873,0.7379104087672317,0.5906188409113381,1],"roughnessFactor":0.75,"metallicFactor":0}},{"pbrMetallicRoughness":{"baseColorFactor":[0.508881320845802,0.19806931954941637,0.1844749944900301,1],"roughnessFactor":0.75,"metallicFactor":0}}],"meshes":[{"primitives":[{"attributes":{"NORMAL":12,"POSITION":19},"mode":4,"material":0,"indices":11}]},{"primitives":[{"attributes":{"NORMAL":14,"POSITION":20},"mode":4,"material":1,"indices":13}]},{"primitives":[{"attributes":{"NORMAL":16,"POSITION":21},"mode":4,"material":2,"indices":15}]},{"primitives":[{"attributes":{"NORMAL":18,"POSITION":22},"mode":4,"material":3,"indices":17}]}],"nodes":[{"name":"speech_mouth","children":[1,2,3,4]},{"name":"mouth_opening","translation":[0,0.027800000000000002,0.0845],"scale":[0.022,0.003,0.0007],"children":[5]},{"name":"speech_lips","translation":[0,0.027800000000000002,0.0845],"scale":[0.022,0.003,0.0035],"children":[6]},{"name":"speech_teeth","translation":[0,0.0298,0.0853],"scale":[0,0,0],"children":[7]},{"name":"speech_tongue","translation":[0,0.02525,0.0852],"scale":[0,0,0],"children":[8]},{"mesh":0},{"scale":[1.0549999475479126,1.0549999475479126,1.0549999475479126],"mesh":1},{"scale":[0.013000000268220901,0.013000000268220901,0.013000000268220901],"mesh":2},{"mesh":3}],"animations":[{"name":"talk","samplers":[{"input":5,"output":6,"interpolation":"LINEAR"},{"input":0,"output":1,"interpolation":"LINEAR"},{"input":5,"output":6,"interpolation":"LINEAR"},{"input":0,"output":2,"interpolation":"LINEAR"},{"input":7,"output":8,"interpolation":"LINEAR"},{"input":9,"output":10,"interpolation":"LINEAR"},{"input":0,"output":3,"interpolation":"LINEAR"},{"input":0,"output":4,"interpolation":"LINEAR"}],"channels":[{"sampler":0,"target":{"node":1,"path":"translation"}},{"sampler":1,"target":{"node":1,"path":"scale"}},{"sampler":2,"target":{"node":2,"path":"translation"}},{"sampler":3,"target":{"node":2,"path":"scale"}},{"sampler":4,"target":{"node":3,"path":"translation"}},{"sampler":5,"target":{"node":3,"path":"scale"}},{"sampler":6,"target":{"node":4,"path":"translation"}},{"sampler":7,"target":{"node":4,"path":"scale"}}]}],"scenes":[{"name":"AuxScene","nodes":[0]}],"scene":0,"extensionsUsed":["EXT_meshopt_compression","KHR_mesh_quantization"],"extensionsRequired":["EXT_meshopt_compression","KHR_mesh_quantization"]}