{"asset":{"generator":"glTF-Transform v4.5.1","version":"2.0"},"accessors":[{"type":"SCALAR","componentType":5123,"count":1872,"normalized":false,"byteOffset":0,"bufferView":0},{"type":"VEC3","componentType":5120,"count":377,"normalized":true,"byteOffset":0,"bufferView":1},{"type":"SCALAR","componentType":5123,"count":288,"normalized":false,"byteOffset":3744,"bufferView":0},{"type":"VEC3","componentType":5120,"count":102,"normalized":true,"byteOffset":0,"bufferView":2},{"type":"VEC3","componentType":5122,"count":377,"max":[3786,32767,3786],"min":[-3786,-32767,-3786],"normalized":true,"byteOffset":0,"bufferView":3},{"type":"VEC2","componentType":5123,"count":377,"normalized":true,"byteOffset":0,"bufferView":4},{"type":"VEC3","componentType":5122,"count":102,"max":[32767,364,32767],"min":[-32767,-364,-32767],"normalized":true,"byteOffset":0,"bufferView":5}],"bufferViews":[{"buffer":1,"byteOffset":0,"byteLength":4320,"target":34963,"extensions":{"EXT_meshopt_compression":{"buffer":0,"byteOffset":0,"byteLength":789,"mode":"TRIANGLES","byteStride":2,"count":2160}}},{"buffer":1,"byteOffset":4320,"byteLength":1508,"target":34962,"byteStride":4,"extensions":{"EXT_meshopt_compression":{"buffer":0,"byteOffset":792,"byteLength":467,"mode":"ATTRIBUTES","filter":"OCTAHEDRAL","byteStride":4,"count":377}}},{"buffer":1,"byteOffset":5828,"byteLength":408,"target":34962,"byteStride":4,"extensions":{"EXT_meshopt_compression":{"buffer":0,"byteOffset":1260,"byteLength":104,"mode":"ATTRIBUTES","filter":"OCTAHEDRAL","byteStride":4,"count":102}}},{"buffer":1,"byteOffset":6236,"byteLength":3016,"target":34962,"byteStride":8,"extensions":{"EXT_meshopt_compression":{"buffer":0,"byteOffset":1364,"byteLength":1623,"mode":"ATTRIBUTES","byteStride":8,"count":377}}},{"buffer":1,"byteOffset":9252,"byteLength":1508,"target":34962,"byteStride":4,"extensions":{"EXT_meshopt_compression":{"buffer":0,"byteOffset":2988,"byteLength":1265,"mode":"ATTRIBUTES","byteStride":4,"count":377}}},{"buffer":1,"byteOffset":10760,"byteLength":816,"target":34962,"byteStride":8,"extensions":{"EXT_meshopt_compression":{"buffer":0,"byteOffset":4256,"byteLength":517,"mode":"ATTRIBUTES","byteStride":8,"count":102}}}],"samplers":[{"wrapS":10497,"wrapT":10497}],"textures":[{"source":0,"sampler":0},{"source":1,"sampler":0},{"source":2,"sampler":0}],"images":[{"name":"wood_albedo","mimeType":"image/png","uri":"../textures/cc1076af92e734b02c5d.png"},{"name":"wood_normal","mimeType":"image/png","uri":"../textures/95a7d373f8dd63af7d15.png"},{"name":"wood_roughness","mimeType":"image/png","uri":"../textures/24356be8f8e9686740a4.png"}],"buffers":[{"uri":"prop-timber_log.bin","byteLength":4776},{"byteLength":11576,"extensions":{"EXT_meshopt_compression":{"fallback":true}}}],"materials":[{"name":"tool_wood","pbrMetallicRoughness":{"baseColorFactor":[0.14126329113044458,0.08021982030622662,0.04231141061442144,1],"roughnessFactor":0.98,"metallicFactor":0,"baseColorTexture":{"index":0},"metallicRoughnessTexture":{"index":2}},"normalTexture":{"index":1,"scale":0.35}},{"pbrMetallicRoughness":{"baseColorFactor":[0.5647115056965487,0.36130677977297226,0.1844749944900301,1],"roughnessFactor":0.9,"metallicFactor":0}}],"meshes":[{"primitives":[{"attributes":{"NORMAL":1,"POSITION":4,"TEXCOORD_0":5},"mode":4,"material":0,"indices":0}]},{"primitives":[{"attributes":{"NORMAL":3,"POSITION":6},"mode":4,"material":1,"indices":2}]}],"nodes":[{"name":"timber_log","children":[1,2,3]},{"rotation":[0.7071067811865474,0,0,0.7071067811865476],"scale":[0.44999998807907104,0.44999998807907104,0.44999998807907104],"mesh":0},{"translation":[0,0,-0.451],"rotation":[0.7071067811865475,0,0,0.7071067811865476],"scale":[0.04500000178813934,0.04500000178813934,0.04500000178813934],"mesh":1},{"translation":[0,0,0.451],"rotation":[0.7071067811865475,0,0,0.7071067811865476],"scale":[0.04500000178813934,0.04500000178813934,0.04500000178813934],"mesh":1}],"scenes":[{"name":"AuxScene","nodes":[0]}],"scene":0,"extensionsUsed":["EXT_meshopt_compression","KHR_mesh_quantization"],"extensionsRequired":["EXT_meshopt_compression","KHR_mesh_quantization"]}